<?xml version="1.0" standalone="no"?>
<!DOCTYPE svg PUBLIC "-//W3C//DTD SVG 1.1//EN" "http://www.w3.org/Graphics/SVG/1.1/DTD/svg11.dtd" >
<svg xmlns="http://www.w3.org/2000/svg" xmlns:xlink="http://www.w3.org/1999/xlink" version="1.1">
<metadata>
Created by FontForge 20201107 at Mon Jun 10 14:27:53 2024
 By Unknown
2024 Iconian Fonts - www.iconian.com
</metadata>
<defs>
<font id="FederalBlueBoldItalic" horiz-adv-x="538" >
  <font-face 
    font-family="Federal Blue Bold Italic"
    font-weight="400"
    font-style="italic"
    font-stretch="normal"
    units-per-em="1000"
    panose-1="0 0 0 0 0 0 0 0 0 0"
    ascent="800"
    descent="-200"
    x-height="580"
    cap-height="580"
    bbox="-83.4 -144 1152.14 792"
    underline-thickness="50"
    underline-position="-125"
    unicode-range="U+0020-2122"
  />
    <missing-glyph />
    <glyph glyph-name="FL0020h" unicode=" " horiz-adv-x="247" 
 />
    <glyph glyph-name="FL0021h" unicode="!" horiz-adv-x="232" 
d="M57 79q-9 -35 8.5 -58.5t52.5 -23.5q36 0 66.5 23.5t39.5 58.5q9 34 -8.5 58t-53.5 24q-17 0 -34 -6.5t-31.5 -17.5t-25 -26t-14.5 -32zM187 580l-104 -388h176l104 388h-176z" />
    <glyph glyph-name="FL0022h" unicode="&#x22;" horiz-adv-x="407" 
d="M161 499q-9 -33 8 -55t51 -24l-24 -86q35 8 56.5 30t36.5 48l-1 -1q3 4 9 16.5t12 26.5t11.5 27t7.5 18q9 35 -8.5 59t-52.5 24q-17 0 -34.5 -6.5t-32 -18t-25 -26.5t-14.5 -32zM354 499q-9 -33 8 -55t51 -24l-24 -86q35 8 56.5 30t36.5 48l-1 -1q3 4 9 16.5t12 26.5
t11.5 27t7.5 18q9 35 -8.5 59t-52.5 24q-17 0 -34.5 -6.5t-32 -18t-25 -26.5t-14.5 -32z" />
    <glyph glyph-name="FL0023h" unicode="#" horiz-adv-x="670" 
d="M709 329h-70l-15 -57h85q9 0 3 -22q-3 -11 -9 -24.5t-12.5 -24.5t-12.5 -18.5t-10 -7.5h-70l-47 -175h-176l47 175h-72l-47 -175h-176l47 175h-85q-10 0 -4 23q3 11 9 24t12.5 24t13 18.5t10.5 7.5h70l15 57h-85q-10 0 -4 23q3 11 9 24t12.5 24.5t13 19t10.5 7.5h71
l41 153h175l-41 -153h72l41 153h176l-41 -153h85q9 0 3 -23q-3 -11 -9 -24t-12.5 -24.5t-12.5 -19t-10 -7.5zM391 329l-15 -57h72l15 57h-72z" />
    <glyph glyph-name="FLE00Bh" unicode="$" horiz-adv-x="494" 
d="M152 -82h154l22 82h112q12 1 22.5 16t19 34t14.5 37t8 25q10 37 3 67.5t-24 56t-40.5 48t-46.5 43.5q-17 14 -32.5 28t-26 27.5t-15.5 27t-1 27.5l10 37q5 6 10 10t8 6h84q8 0 7 -16.5t-6 -38.5l-4 -10l-4 -10q-1 -2 -2 -6.5t-2 -6.5h152q9 14 13 24t8 24q5 18 6 41
t-1.5 42.5t-8 33t-12.5 13.5h-96l22 80h-154l-22 -80h-110q-12 0 -23.5 -15t-20.5 -34t-15 -37.5t-8 -25.5q-12 -45 -5 -80t25.5 -63t44 -49.5t50.5 -40.5q32 -24 53 -46.5t15 -45.5l-10 -38q-14 -15 -17 -15h-84q-7 0 -6 16.5t7 38.5q2 5 3.5 10t3.5 10q1 2 2.5 7t2.5 7
h-152q-10 -14 -14 -24.5t-8 -24.5q-5 -18 -6 -41t1.5 -42.5t8 -33t12.5 -13.5h95z" />
    <glyph glyph-name="FL0025h" unicode="%" horiz-adv-x="805" 
d="M777 580l-420 -580h-167l420 580h167zM170 510q2 9 10 21.5t18.5 23t23 18t24.5 7.5h155q11 0 19.5 -7.5t14 -18t7 -23t-0.5 -21.5l-48 -179q-3 -11 -12 -23t-20 -22.5t-23 -17.5t-22 -7h-155q-11 0 -19.5 7t-14 17.5t-7 22.5t1.5 23zM576 249q2 9 10 21t19 23t23.5 18.5
t23.5 7.5h155q12 0 20.5 -7.5t14 -18.5t7 -23t-0.5 -21l-48 -179q-3 -11 -12 -23t-20 -22.5t-23.5 -17.5t-22.5 -7h-155q-10 0 -18.5 7t-14 17.5t-7.5 22.5t1 23zM283 497q-4 0 -7 -3l-39 -147q-2 -3 5 -3h36q5 0 7 3l39 147q1 1 -1 2t-4 1h-36zM690 236q-4 0 -7 -3
l-39 -147q0 -3 5 -3h36q7 0 7 3l39 147q1 1 -1 2t-4 1h-36z" />
    <glyph glyph-name="FL0026h" unicode="&#x26;" horiz-adv-x="537" 
d="M656 580l3 -4q1 -13 -1 -26.5t-6 -25.5q-8 -31 -29 -51t-49 -32t-59.5 -16.5t-59.5 -4.5q8 14 10.5 19.5t4.5 10.5q3 14 2 22.5t-5 19.5h-112q-4 0 -18 -17l-99 -371q4 -15 9 -15h98q4 0 18 15l16 59q1 6 0.5 13t-1.5 16l1 -1q-7 17 -24 33.5t-31 28.5q-7 5 -12 9t-7 6
q1 4 3.5 12t5 16.5t5.5 16t6 11.5q5 5 7 8t5 6q7 8 13 16t17 16q32 -11 57.5 -25t47.5 -32t42.5 -40t43.5 -49q2 -23 -0.5 -44.5t-10.5 -50.5q-2 -8 -9 -29t-17 -43t-21.5 -39.5t-23.5 -17.5h-407q-12 0 -14 18.5t0.5 42.5t7 46.5t6.5 30.5q8 30 18 55.5t24 47.5
q8 10 22 22.5t29 26.5q-8 14 -15.5 26t-9.5 23q-2 22 1.5 47.5t11.5 55.5q2 7 9.5 29.5t18 46.5t22.5 43t24 19h432z" />
    <glyph glyph-name="FL0027h" unicode="'" horiz-adv-x="214" 
d="M160 498q-8 -33 9 -55t50 -24l-23 -86q35 8 56.5 30t36.5 48l-1 -1q3 4 9.5 16.5t12.5 26.5t11 27t6 18q10 35 -7.5 59t-52.5 24q-18 0 -35 -6.5t-31.5 -18t-25 -26.5t-15.5 -32z" />
    <glyph glyph-name="FL0028h" unicode="(" horiz-adv-x="324" 
d="M160 477l-119 -443q-2 -8 -1 -17.5t4.5 -17.5t9 -13.5t11.5 -5.5h230l23 89h-85q-2 0 -2 8q0 2 0.5 6t1.5 9l100 376q12 18 18 25t14 13l7 6h65l24 88h-167q-19 0 -40.5 -13t-41 -32t-34 -40.5t-18.5 -37.5z" />
    <glyph glyph-name="FL0029h" unicode=")" horiz-adv-x="324" 
d="M328 103l118 443q2 8 1 17.5t-4 17.5t-8 13.5t-11 5.5h-231l-24 -88h85q2 0 2.5 -8t-1.5 -15l-101 -377q-11 -17 -17 -24t-14 -13l-8 -6h-65l-23 -89h167q19 0 40.5 13t40.5 32t33.5 40t19.5 38z" />
    <glyph glyph-name="asterisk" unicode="*" horiz-adv-x="264" 
d="M266 397l91 55l-24 37l52 10l-8 87l-48 -22l23 51h-102l-5 -50l-37 24l-52 -86l42 -13l-41 -37l60 -56l36 38z" />
    <glyph glyph-name="FL002Bh" unicode="+" horiz-adv-x="361" 
d="M302 257h79q3 0 9.5 7.5t13 18.5t12.5 24t9 24q6 23 -4 23h-93l26 96h-97l-26 -96h-79q-4 0 -10.5 -7.5t-13 -19t-12.5 -24.5t-9 -24q-6 -22 4 -22h94l-26 -98h97z" />
    <glyph glyph-name="FL002Ch" unicode="," horiz-adv-x="214" 
d="M48 78q-9 -34 8 -55.5t51 -23.5l-23 -86q35 8 56 30t37 48h-1q3 4 9 16t12 26t11 26.5t7 18.5q9 34 -8.5 58.5t-52.5 24.5q-17 0 -34.5 -6.5t-32 -18t-25 -26.5t-14.5 -32z" />
    <glyph glyph-name="FL002Dh" unicode="-" horiz-adv-x="311" 
d="M111 257h220q3 0 9.5 7.5t13 18.5t12.5 24t9 24q6 23 -4 23h-219q-4 0 -10.5 -7.5t-13 -19t-12.5 -24.5t-9 -24q-6 -22 4 -22z" />
    <glyph glyph-name="FL0030h" unicode="." horiz-adv-x="214" 
d="M48 79q-9 -35 9 -58.5t53 -23.5q36 0 65.5 24t39.5 58q9 34 -8.5 58t-52.5 24q-17 0 -34.5 -6.5t-32 -17.5t-25 -26t-14.5 -32z" />
    <glyph glyph-name="FL002Fh" unicode="/" horiz-adv-x="468" 
d="M193 0l428 580h-184l-427 -580h183z" />
    <glyph glyph-name="FL0032h" unicode="0" 
d="M154 457q4 16 18.5 37t34 40t41.5 32.5t40 13.5h279q19 0 33.5 -13.5t23.5 -32.5t12 -40t-1 -37l-89 -334q-5 -18 -19.5 -39.5t-34 -40t-41 -31t-39.5 -12.5h-279q-18 0 -33 12.5t-24.5 31t-12.5 40t2 39.5zM361 491q-5 0 -14.5 -5.5t-11.5 -10.5l-99 -370q-2 -5 4 -10.5
t13 -5.5h87q7 0 15.5 5.5t10.5 10.5l99 370q2 5 -5 10.5t-12 5.5h-87zM307 290q5 20 20.5 32t34.5 12q22 2 29 -12.5t2.5 -31.5t-19 -31.5t-35.5 -12.5q-19 0 -28 12t-4 32z" />
    <glyph glyph-name="FL0031h" unicode="1" horiz-adv-x="320" 
d="M450 580l-155 -580h-175l132 492q-37 1 -62 25.5t-26 62.5h286z" />
    <glyph glyph-name="FL0035h" unicode="2" horiz-adv-x="494" 
d="M62 0h361q7 0 19.5 13.5t25 33t24 42.5t16.5 41q3 13 5 23.5t0 24.5h-169q-1 -2 -1.5 -7t-1.5 -7q-1 -5 -1.5 -9.5t-1.5 -9.5q-6 -22 -14 -39t-15 -17h-67q-6 0 -10 15l6 23q6 21 38 43t75 48q36 21 74.5 46t73 55t61.5 67t39 82q2 7 6 25.5t5.5 38t-2 34t-15.5 14.5
h-360q-8 0 -20 -13.5t-25 -33t-24 -42.5t-16 -41q-4 -13 -5 -23.5t1 -24.5h169q1 2 1.5 7t0.5 7q1 5 1.5 9.5t2.5 9.5q5 22 13.5 39t16.5 17h66q3 -3 9 -17l-6 -22q-7 -25 -43.5 -52t-84.5 -57q-35 -23 -72 -48t-69.5 -53t-57 -60.5t-34.5 -69.5q-2 -8 -5.5 -26t-5 -36.5
t1.5 -33.5t14 -16z" />
    <glyph glyph-name="FL0033h" unicode="3" horiz-adv-x="525" 
d="M436 493h1v-1zM187 580l-15 -56q-8 -31 4 -51t35 -32t53 -16.5t58 -4.5l19 72h96h1l7.5 -7.5t5.5 -8.5l-33 -122h-166q-4 0 -10.5 -7.5t-13 -19t-12.5 -24.5t-9 -24q-6 -22 4 -22h181l-43 -161q-2 -2 -4.5 -4t-3.5 -3h-109l18 68h-176l-42 -157h432q12 0 24 18.5
t22.5 42.5t17.5 46.5t9 30.5q8 30 12.5 55.5t2.5 47.5q-4 10 -11.5 22.5t-15.5 26.5q16 14 30 26t23 23q14 22 23 47.5t17 55.5q3 7 7.5 29.5t7 46.5t0 43t-13.5 19h-432z" />
    <glyph glyph-name="FL0034h" unicode="4" 
d="M101 257l86 323h176l-60 -226h130l60 226h175l-155 -580h-175l69 257h-306z" />
    <glyph glyph-name="FL0053h" unicode="5" horiz-adv-x="504" 
d="M84 0q-7 0 -12.5 13.5t-8 33t-1.5 42.5t6 41q3 13 7.5 23.5t14.5 24.5h168q-1 -2 -2.5 -7t-2.5 -7q-2 -5 -4 -9.5t-3 -9.5q-6 -22 -7 -39t7 -17h67q3 0 17 15l5 20q6 22 -14 44t-50 48q-24 21 -49.5 46t-43.5 56t-25.5 68t4.5 82l30 112h447l-34 -130q-4 -13 -8 -23.5
t-14 -24.5h-169l24 89h-92l-10 -36q-7 -26 15.5 -53t54.5 -58q23 -23 46.5 -48t40.5 -53.5t24 -61t-3 -69.5q-2 -8 -8 -26t-14.5 -36.5t-19 -33.5t-22.5 -16h-361z" />
    <glyph glyph-name="FL0036h" unicode="6" horiz-adv-x="522" 
d="M536 354q5 0 9.5 -8.5t7.5 -22.5t5 -31t2 -34t-5 -42l-19 -71q-4 -16 -19.5 -40.5t-35.5 -48t-40.5 -40t-34.5 -16.5h-337q-6 0 -11 5.5t-8.5 13.5t-4.5 17.5t1 17.5l108 403q4 16 18.5 37.5t34 40.5t41 32t40.5 13h313q7 0 12.5 -13.5t8 -33t2 -42t-5.5 -40.5
q-4 -13 -8 -23.5t-14 -24.5h-169q1 2 2.5 7t2.5 7q2 5 3.5 9.5t3.5 9.5q6 22 7 39t-7 17h-72q-1 -1 -3 -2.5t-5 -4.5v1q-8 -6 -14 -13t-17 -25l-25 -94h233zM384 159q7 26 8 50.5t-7 47.5h-108l-39 -146q-1 -5 -1.5 -9t-0.5 -6q0 -8 3 -8h94q6 0 13.5 7t15 17.5t13.5 23
t9 23.5z" />
    <glyph glyph-name="FL0037h" unicode="7" horiz-adv-x="504" 
d="M209 0l34 127q6 21 39.5 45.5t79.5 52.5q36 22 74 47t71.5 54.5t59.5 64.5t37 77l30 112h-447l-34 -130q-4 -13 -5 -23.5t1 -24.5h152q1 2 1.5 7t0.5 7q1 5 1.5 9.5t2.5 9.5l15 56h112l-11 -39q-7 -25 -43.5 -52t-85.5 -57q-35 -23 -72 -48t-69 -53t-56.5 -60.5
t-34.5 -69.5l-30 -112h177z" />
    <glyph glyph-name="FL0038h" unicode="8" horiz-adv-x="537" 
d="M150 442q2 7 9.5 29.5t18 46.5t22.5 43t24 19h407q8 0 11.5 -9t3.5 -23q0 -13 -2 -29.5t-5 -32t-5.5 -27.5t-3.5 -17q-8 -30 -17 -55.5t-23 -47.5q-9 -11 -23 -23t-30 -26q8 -14 15.5 -26.5t11.5 -22.5q2 -22 -2.5 -47.5t-12.5 -55.5q-2 -8 -9 -30.5t-17.5 -46.5
t-22.5 -42.5t-24 -18.5h-407q-12 0 -14 18.5t0.5 42.5t7 46.5t6.5 30.5q8 30 18 55.5t24 47.5q8 10 22 22.5t29 26.5q-8 14 -15.5 26t-9.5 23q-2 22 1.5 47.5t11.5 55.5zM355 491q-5 0 -18 -16l-99 -371q4 -15 9 -15h98q4 0 18 15l31 118q2 10 2 9q0 7 -1 8l-10 -4
q-13 -6 -27 -11t-33 -10q-7 8 -9 16l-4 16q-1 1 -1 5q0 1 -3 9q0 9 3.5 26.5t5.5 28.5q4 2 10.5 6t13.5 9q21 14 49 32t45 37l-1 -1q5 9 9 15.5t6 12.5l13 49q-4 16 -9 16h-98z" />
    <glyph glyph-name="FL0039h" unicode="9" horiz-adv-x="522" 
d="M150 226q-6 0 -10.5 8.5t-8 22.5t-5 31t-1.5 34t5 42l19 71q4 16 19.5 40.5t35 47.5t40 40t34.5 17h337q6 0 11.5 -5.5t8.5 -13.5t4 -17.5t-1 -17.5l-108 -403q-5 -17 -19.5 -38t-33.5 -40t-40.5 -32t-40.5 -13h-313q-7 0 -12.5 13.5t-7.5 33t-1.5 42t5.5 40.5
q3 13 7 23.5t14 24.5h170q0 -2 -2 -7t-2 -7q-2 -5 -4 -9.5t-3 -9.5q-6 -22 -7 -39t7 -17h72l7 7v-1q7 6 13 13t18 25l26 94h-233zM302 421q-7 -26 -9 -51t6 -47h110l39 146q2 7 1.5 15t-3.5 8h-94q-6 0 -13 -7t-14.5 -17.5t-13.5 -23t-9 -23.5z" />
    <glyph glyph-name="FL003Ah" unicode=":" horiz-adv-x="214" 
d="M120 348q-9 -34 9 -58t53 -24q36 0 65.5 24t39.5 58q9 34 -8.5 58.5t-52.5 24.5q-17 0 -34.5 -6.5t-32 -18t-25 -26.5t-14.5 -32zM48 79q-9 -35 9 -58.5t53 -23.5q36 0 65.5 24t39.5 58q9 34 -8.5 58t-52.5 24q-17 0 -34.5 -6.5t-32 -17.5t-25 -26t-14.5 -32z" />
    <glyph glyph-name="FL003Bh" unicode=";" horiz-adv-x="214" 
d="M121 349q-10 -35 8.5 -58.5t53.5 -23.5q18 0 34.5 6.5t30.5 17.5t24.5 26t15.5 32q9 34 -8.5 58.5t-52.5 24.5q-17 0 -34.5 -6.5t-32 -18t-25 -26.5t-14.5 -32zM48 78q-9 -34 8 -55.5t51 -23.5l-23 -86q35 8 56 30t37 48h-1q3 4 9 16t12 26t11 26.5t7 18.5
q9 34 -8.5 58.5t-52.5 24.5q-17 0 -34.5 -6.5t-32 -18t-25 -26.5t-14.5 -32z" />
    <glyph glyph-name="FL003Ch" unicode="&#x3c;" horiz-adv-x="342" 
d="M96 291l62 -291h182l-61 290l216 290h-184z" />
    <glyph glyph-name="FL003Dh" unicode="=" horiz-adv-x="325" 
d="M325 179h-236q-9 0 -3 22q3 10 8.5 23t12 24t12.5 18.5t10 7.5h235q11 0 5 -22q-3 -11 -9 -23.5t-12.5 -23.5t-13 -18.5t-9.5 -7.5zM363 321h-236q-9 0 -3 23q3 10 8.5 23t12 23.5t12.5 18t10 7.5h235q11 0 5 -22q-3 -11 -9 -23.5t-12.5 -23.5t-13 -18.5t-9.5 -7.5z" />
    <glyph glyph-name="FL003Eh" unicode="&#x3e;" horiz-adv-x="342" 
d="M192 0l218 291l-61 289h-184l62 -290l-217 -290h182z" />
    <glyph glyph-name="FL003Fh" unicode="?" horiz-adv-x="518" 
d="M100 192l30 109q2 8 7.5 17.5t13 17.5t15.5 13.5t15 5.5h205l5 5v-1q8 7 14 13t18 23l14 53q-3 18 -5 25t-6 13v-1q-3 2 -4 7h-90q-8 0 -16 -17t-14 -38q-3 -11 -3 -20q-1 -2 -1.5 -7t-1.5 -7h-152q-2 14 -1 24.5t5 23.5q5 18 16 40.5t24 42t25 33t20 13.5h314
q19 0 33.5 -13t23.5 -32t12 -40.5t-1 -37.5l-17 -67q-5 -16 -20 -38.5t-34.5 -43.5t-41 -35.5t-40.5 -14.5h-160q-4 -2 -8.5 -9t-6.5 -14l-12 -43h-175zM74 79q4 17 14.5 32t25 26t31.5 17.5t34 6.5q35 0 52.5 -24t8.5 -58q-10 -34 -39.5 -58t-65.5 -24q-35 0 -52.5 23.5
t-8.5 58.5z" />
    <glyph glyph-name="FL0040h" unicode="@" horiz-adv-x="800" 
d="M922 546l-81 -304q-5 -17 -19.5 -38t-34 -40t-41 -32t-40.5 -13h-347q-12 0 -21.5 7.5t-16 19t-9 25t0.5 24.5l51 190q3 10 12 23t21 25t26 20.5t28 8.5h155q12 0 21.5 -8.5t15.5 -20.5t8 -25t-1 -23l-47 -176h24q2 2 4 3.5t4 3.5v-1q7 5 13 12t19 25l63 237q2 7 1.5 15
t-3.5 8h-354q-2 -1 -8 -7l1 1q-8 -6 -14 -13t-19 -25l-100 -376q-1 -5 -1.5 -9t-0.5 -6q0 -8 3 -8h534l-23 -89h-681q-6 0 -11.5 5.5t-8.5 13.5t-4 17.5t1 17.5l119 443q4 16 18.5 37.5t34 40.5t41 32t40.5 13h604q6 0 11.5 -5.5t8.5 -13.5t4 -17.5t-1 -17.5zM487 373
l-44 -165h35l44 165h-35z" />
    <glyph glyph-name="FL0060h" unicode="A" 
d="M154 457q4 16 18.5 37t34 40t41.5 32.5t40 13.5h279q19 0 33.5 -13.5t23.5 -32.5t12 -40t-1 -37l-122 -457h-175l46 170q4 23 5 45t-7 42h-71q-10 0 -4 22q3 11 9 24t12.5 24.5t13 19t10.5 7.5h81l32 121q2 5 -5 10.5t-12 5.5h-87q-11 0 -16.5 -5t-9.5 -13l-127 -473
h-176z" />
    <glyph glyph-name="FL0042h" unicode="B" horiz-adv-x="553" 
d="M341 491h128q5 0 9 -16l-12 -44q-2 -6 -6 -13t-9 -16l1 1q-17 -20 -45 -37.5t-49 -31.5q-7 -5 -13.5 -9t-10.5 -6q-2 -9 -6 -28t-4 -28q4 -4 4 -8t1 -5l4 -16t9 -16q19 5 32.5 10t27.5 11l10 4q2 -8 0 -17l-33 -122q-14 -15 -18 -15h-128zM32 0h460q12 0 24 18.5
t22.5 42.5t17.5 46.5t9 30.5q8 30 12.5 55.5t2.5 47.5q-4 10 -11.5 22.5t-15.5 26.5q16 14 30 26t23 23q14 22 23 47.5t17 55.5q1 5 3.5 17t5.5 27.5t5 32t2 29.5q0 14 -3.5 23t-11.5 9h-460z" />
    <glyph glyph-name="FL0043h" unicode="C" horiz-adv-x="522" 
d="M69 0q-6 0 -11 5.5t-8.5 13.5t-4.5 17.5t1 17.5l108 403q4 16 18.5 37.5t34 40.5t41 32t40.5 13h365l-15 -56q-8 -31 -30 -51t-51.5 -32t-61.5 -16.5t-60 -4.5l19 72h-87q-1 -1 -3 -2.5t-5 -4.5v1q-8 -6 -14 -13t-17 -25l-90 -337q-1 -5 -1.5 -9t-0.5 -6q0 -8 3 -8h99
q2 1 4 3t6 4l17 62h175l-42 -157h-429z" />
    <glyph glyph-name="FL0044h" unicode="D" 
d="M340 491h108q5 0 12 -5.5t5 -10.5l-99 -370q-2 -5 -10.5 -10.5t-15.5 -5.5h-108zM187 580l-155 -580h380q18 0 39.5 12.5t41 31t34 40t19.5 39.5l89 334q4 16 1 37t-12 40t-23.5 32.5t-33.5 13.5h-380z" />
    <glyph glyph-name="FL0045h" unicode="E" horiz-adv-x="523" 
d="M653 580h-466l-155 -580h466l42 157h-175l-18 -68h-115l45 168h181q9 0 15 22q3 11 4 24t0.5 24.5t-2.5 19t-6 7.5h-166l37 138h114l-19 -72q28 0 60 4.5t61.5 16.5t51.5 32t30 51z" />
    <glyph glyph-name="FL0046h" unicode="F" horiz-adv-x="518" 
d="M653 580h-466l-155 -580h176l61 227h181q9 0 15 23q3 11 4 24t0.5 24t-2.5 18.5t-6 7.5h-166l45 168h115l-27 -102q28 0 61 8t63 23.5t53 39t31 53.5z" />
    <glyph glyph-name="FL0047h" unicode="G" horiz-adv-x="522" 
d="M537 354q5 0 9.5 -8.5t7.5 -22.5t5 -31t2 -34t-5 -42l-58 -216h-429q-6 0 -11 5.5t-8.5 13.5t-4.5 17.5t1 17.5l108 403q4 16 18.5 37.5t34 40.5t41 32t40.5 13h365l-15 -56q-8 -31 -30 -51t-51.5 -32t-61.5 -16.5t-60 -4.5l19 72h-87q-1 -1 -3 -2.5t-5 -4.5v1
q-8 -6 -14 -13t-17 -25l-90 -337q-1 -5 -1.5 -9t-0.5 -6q0 -8 3 -8h101q2 1 4 3t6 4l18 65q7 25 8 49.5t-6 47.5h-43q-9 0 -3 22q3 11 9 24t12.5 24.5t12.5 19t10 7.5h169z" />
    <glyph glyph-name="FL0048h" unicode="H" 
d="M32 0l155 580h176l-60 -226h130l60 226h175l-155 -580h-175l69 257h-130l-69 -257h-176z" />
    <glyph glyph-name="FL0049h" unicode="I" horiz-adv-x="617" 
d="M597 0l47 175h-158l-23 -87h-36l108 404h25l-23 -87q28 0 59.5 5t59.5 17.5t49 33t29 51.5l18 68h-565l-46 -175h159l23 87h36l-108 -404h-26l23 87q-28 0 -59.5 -5t-59.5 -17.5t-49.5 -33t-29.5 -51.5l-18 -68h565z" />
    <glyph glyph-name="FL02FBh" unicode="J" horiz-adv-x="517" 
d="M261 580h386l-141 -526q-2 -8 -8 -17.5t-13.5 -17.5t-15.5 -13.5t-14 -5.5h-342q-15 0 -25.5 16.5t-16.5 40t-7.5 48t2.5 40.5l1 5q5 16 10.5 32.5t16.5 33.5h171q-8 -17 -12.5 -30t-7.5 -27q-3 -11 -4 -23.5t0.5 -23t5.5 -17.5t10 -7h76q3 0 7.5 8t6.5 15l102 381h-43
q-10 -11 -15.5 -19.5t-8.5 -22.5q-2 -5 -2.5 -10.5t1.5 -19.5q-29 0 -58 4.5t-50.5 16.5t-32 32t-2.5 51q4 12 9.5 27t13.5 29z" />
    <glyph glyph-name="FL004Bh" unicode="K" horiz-adv-x="534" 
d="M463 475v-1q-1 4 0.5 25.5t4.5 47.5q0 7 0.5 16.5t0.5 16.5h161q8 0 11.5 -9t3.5 -23q0 -13 -2 -29.5t-5 -32t-5.5 -27.5t-3.5 -17q-8 -29 -17.5 -55.5t-27.5 -49.5q-8 -12 -26 -22.5t-37 -20.5q-14 -8 -26 -14t-14 -11l-1 -8v1l52 -262h-186q-5 5 -12 29t-13.5 56
t-12 66t-7.5 59l-48 -27l-49 -183h-177l155 580h177l-75 -282q8 5 15.5 8.5t14.5 8.5q27 14 50.5 27.5t42.5 30t33 37.5t22 50z" />
    <glyph glyph-name="FL004Ch" unicode="L" horiz-adv-x="523" 
d="M187 580l-155 -580h466l42 157h-175l-18 -68h-115l131 491h-176z" />
    <glyph glyph-name="FL004Dh" unicode="M" horiz-adv-x="762" 
d="M188 580h175q10 0 23 -6.5t26.5 -18t26 -27.5t21.5 -35l23 87h182q35 -23 61 -43.5t45.5 -42t33.5 -44.5t25 -50q3 -6 3 -18q0 -16 -4 -36.5t-7 -31.5l-84 -314h-177l94 351q2 6 -4 19t-16.5 26.5t-22.5 25t-22 15.5l-117 -437h-174l92 343q-6 23 -25.5 49t-39.5 43
l-117 -435h-176z" />
    <glyph glyph-name="FL004Eh" unicode="N" 
d="M32 0l155 580h380q19 0 33.5 -13.5t23.5 -32.5t12 -40t-1 -37l-122 -457h-175l127 475q2 5 -5 10.5t-12 5.5h-108l-132 -491h-176z" />
    <glyph glyph-name="FL004Fh" unicode="O" 
d="M154 457q4 16 18.5 37t34 40t41.5 32.5t40 13.5h279q19 0 33.5 -13.5t23.5 -32.5t12 -40t-1 -37l-89 -334q-5 -18 -19.5 -39.5t-34 -40t-41 -31t-39.5 -12.5h-279q-18 0 -33 12.5t-24.5 31t-12.5 40t2 39.5zM361 491q-5 0 -14.5 -5.5t-11.5 -10.5l-99 -370q-2 -5 4 -10.5
t13 -5.5h87q7 0 15.5 5.5t10.5 10.5l99 370q2 5 -5 10.5t-12 5.5h-87z" />
    <glyph glyph-name="FL0050h" unicode="P" horiz-adv-x="548" 
d="M32 0l155 580h460q8 0 11.5 -9t3.5 -23q0 -13 -2 -29.5t-5 -32t-5.5 -27.5t-3.5 -17q-8 -29 -17.5 -55.5t-24.5 -49.5q-8 -10 -26 -26.5t-37.5 -32.5t-35.5 -28t-20 -14l3 1q-35 -23 -75.5 -37t-82.5 -27q-8 10 -13 20.5t-3 28.5v-1q-1 9 2.5 26t5.5 26q4 2 10.5 6.5
t12.5 8.5q13 8 30.5 18.5t33.5 22.5t28 24.5t15 24.5l26 97q-4 16 -9 16h-128l-132 -491h-177z" />
    <glyph glyph-name="FL0051h" unicode="Q" 
d="M154 457q4 16 18.5 37t34 40t41.5 32.5t40 13.5h279q19 0 33.5 -13.5t23.5 -32.5t12 -40t-1 -37l-89 -334q-5 -18 -19.5 -39.5t-34 -40t-41 -31t-39.5 -12.5h-53q-1 -2 -0.5 -3.5t-0.5 -3.5q-1 -3 -2 -7.5t-4 -13.5q-1 -3 -1 -17v-25q0 -14 0.5 -27.5t1.5 -26.5h-162
q-11 0 -14 15.5t-2 36t4.5 41t6.5 31.5h-53q-18 0 -32.5 13.5t-23.5 32.5t-12.5 40t0.5 37zM335 474l-95 -356q9 9 18.5 15.5t20.5 13.5q17 11 28.5 20.5t16.5 20.5h64l77 286q2 5 -5.5 10.5t-12.5 5.5h-87q-5 0 -14 -5.5t-11 -10.5z" />
    <glyph glyph-name="FL0052h" unicode="R" horiz-adv-x="557" 
d="M32 0h177l132 491h128q5 0 9 -16l-26 -97q-6 -23 -25 -34.5t-41 -20.5q-22 -8 -40 -18.5t-24 -33.5q-3 -9 -2.5 -21t0.5 -21q1 -24 6 -61t12 -72.5t14 -63t12 -32.5h186l-52 262v-1l1 8q3 8 15.5 15.5t29.5 15.5q18 9 34 17.5t24 19.5q18 23 27.5 49.5t17.5 55.5
q1 5 3.5 17t5.5 27.5t5 32t1.5 30t-4 22.5t-11.5 9h-460z" />
    <glyph glyph-name="FL0054h" unicode="S" horiz-adv-x="494" 
d="M79 0q-7 0 -12.5 13.5t-8 33t-1.5 42.5t6 41q3 13 7.5 23.5t14.5 24.5h168q-1 -2 -2.5 -7t-2.5 -7q-2 -5 -4 -9.5t-3 -9.5q-6 -22 -7 -39t7 -17h67q3 0 17 15l6 24q6 20 -14 42t-50 48q-24 21 -49 45.5t-44 55t-26.5 67.5t4.5 82q2 7 8.5 25.5t15.5 38t20 34t23 14.5h360
q7 0 12.5 -13.5t8 -33t1.5 -42.5t-6 -41q-4 -13 -8 -23.5t-13 -24.5h-170q1 2 2.5 7t1.5 7q2 5 4 9.5t4 9.5q5 22 6.5 39t-5.5 17h-67q-3 -2 -8.5 -6t-10.5 -11l-6 -22q-7 -25 16 -52t55 -57q23 -23 46.5 -48t40.5 -53t24 -60.5t-3 -69.5q-2 -8 -8 -26t-14.5 -36.5
t-19 -33.5t-22.5 -16h-361z" />
    <glyph glyph-name="FL0C0Bh" unicode="T" horiz-adv-x="617" 
d="M747 580l-46 -175h-158l23 87h-33l-132 -492h-176l132 492h-28l-23 -87q-29 0 -58 5t-50 17.5t-31.5 33t-2.5 51.5l18 68h565z" />
    <glyph glyph-name="FL0055h" unicode="U" 
d="M187 580l-122 -457q-4 -16 -0.5 -37t12.5 -40t23.5 -32.5t32.5 -13.5h380l155 580h-175l-131 -491h-109q-11 0 -13.5 5t-2.5 13l126 473h-176z" />
    <glyph glyph-name="FL0056h" unicode="V" horiz-adv-x="495" 
d="M625 580l-155 -580h-211q-68 43 -106 84.5t-58 95.5q-3 6 -3 17q0 17 4 37.5t7 31.5l84 314h175l-94 -351q-2 -6 4 -19t16.5 -26.5t22.5 -25t21 -15.5l117 437h176z" />
    <glyph glyph-name="FL0057h" unicode="W" horiz-adv-x="762" 
d="M738 0h-176q-11 0 -24 6.5t-26.5 18t-25.5 27.5t-21 35l-23 -87h-182q-68 42 -106 84t-59 96q-3 7 -2.5 18.5t2.5 24t4.5 24.5t4.5 19l84 314h176l-94 -351q-2 -7 4 -20t16.5 -26.5t22.5 -25t22 -15.5l117 438h174l-92 -344q8 -21 27 -47.5t39 -43.5l116 435h177z" />
    <glyph glyph-name="FL0058h" unicode="X" horiz-adv-x="580" 
d="M363 532q5 11 11 24.5t11 23.5h-161q-12 0 -24 -19t-22.5 -43t-18 -46.5t-9.5 -29.5q-8 -29 -12 -55.5t1 -49.5q2 -12 14 -20.5t23 -16.5q13 -8 23 -16t8 -16v1l-3 -8v1l-193 -262h186q9 4 29.5 31.5t45.5 64.5t50 76.5t42 66.5q2 -2 4 -3.5t4 -3.5q12 -10 22.5 -19
t18 -19t10 -22t-1.5 -27q-1 -4 -2.5 -7.5t-2.5 -8.5q-2 -5 -3.5 -9.5t-3.5 -12.5q-1 -2 -9.5 -19.5t-19.5 -39.5q-5 -11 -11 -24.5t-11 -23.5h161q12 0 24 18.5t22.5 42.5t17.5 46.5t9 30.5q8 29 12 55.5t-1 49.5q-2 11 -13.5 19.5t-24.5 17.5q-12 8 -21.5 15.5t-7.5 15.5
l3 8v-1l193 262h-187q-7 -4 -28.5 -32t-47.5 -65t-51.5 -75.5t-38.5 -64.5q-17 11 -30 20t-20.5 19t-9.5 22.5t3 30.5q1 4 2 7.5t3 8.5q1 5 3 10t4 13q2 5 10.5 21.5t18.5 36.5z" />
    <glyph glyph-name="FL005Ch" unicode="Y" horiz-adv-x="523" 
d="M135 386l52 194h176l-56 -209q0 -8 3 -13t14 -5h94l60 227h175l-141 -526q-2 -8 -8 -17.5t-13.5 -17.5t-15.5 -13.5t-14 -5.5h-338q-14 0 -25.5 16.5t-19 40t-9.5 48t2 40.5l1 5q5 16 10.5 32.5t16.5 33.5h171q-7 -17 -11.5 -30t-7.5 -27q-3 -11 -4 -23.5t0.5 -23
t5.5 -17.5t10 -7h76q3 0 7.5 8t6.5 15l40 152h-190q-18 0 -32.5 13.5t-23.5 32.5t-12.5 40t0.5 37z" />
    <glyph glyph-name="FL007Bh" unicode="Z" horiz-adv-x="500" 
d="M585 515q16 14 32.5 31t24.5 34h-440q-2 0 -9 -9t-9 -15q-10 -23 -22.5 -56t-24.5 -78l195 70h47l-278 -406l1 1q-3 -4 -10 -11l-15 -15q-16 -14 -32.5 -31t-24.5 -30h442q2 0 9 9t9 15q10 23 23 56t24 78l-194 -70h-53l282 405l9 9t14 13z" />
    <glyph glyph-name="FL005Eh" unicode="[" horiz-adv-x="324" 
d="M345 512h92l24 88h-268l-166 -620h268l26 99h-92z" />
    <glyph glyph-name="FL005Dh" unicode="\" horiz-adv-x="468" 
d="M283 0l-118 580h184l117 -580h-183z" />
    <glyph glyph-name="FL005Fh" unicode="]" horiz-adv-x="324" 
d="M53 79l-26 -99h268l166 620h-268l-24 -88h92l-116 -433h-92z" />
    <glyph glyph-name="FL0061h" unicode="^" horiz-adv-x="522" 
d="M184 354h168q4 0 6 -7.5t3 -19t0 -24.5t-4 -24q-6 -22 -16 -22h-46q-19 -23 -30.5 -47.5t-18.5 -50.5q-3 -11 -4 -23.5t0.5 -23t5.5 -17.5t10 -7h80q3 0 7.5 8t6.5 15l90 337q-3 18 -5 25t-6 13v-1q-3 2 -4 7h-87l-23 -87h-177l46 175h365q19 0 33.5 -13t23.5 -32
t12 -40.5t-1 -37.5l-108 -403q-2 -8 -8 -17.5t-13.5 -17.5t-15.5 -13.5t-14 -5.5h-337q-14 0 -25.5 16.5t-19 40t-9.5 48t2 40.5l19 71q5 18 17.5 42t27 45t28 36t21.5 15z" />
    <glyph glyph-name="FL0065h" unicode="_" horiz-adv-x="418" 
d="M42 0h327q4 0 10 7.5t13 18.5t13 24.5t9 24.5q6 22 -4 22h-327q-4 0 -10.5 -7.5t-13 -18.5t-12.5 -24t-9 -24q-6 -23 4 -23z" />
    <glyph glyph-name="FL0063h" unicode="`" horiz-adv-x="217" 
d="M364 630l-31 160h-170l39 -160h162z" />
    <glyph glyph-name="FLE00Ah" unicode="a" horiz-adv-x="522" 
d="M330 257h-32q-20 -23 -31 -47.5t-18 -49.5l-14 -51q-2 -7 0 -13.5t4 -7.5h100q3 0 7.5 8t6.5 15l90 337q-3 18 -5 25t-6 13v-1q-3 2 -4 7h-87l-19 -72q-28 0 -58 4.5t-53 16.5t-35 32t-4 51l15 56h365q19 0 33.5 -13t23.5 -32t12 -40.5t-1 -37.5l-108 -403
q-2 -8 -8 -17.5t-13.5 -17.5t-15.5 -13.5t-14 -5.5h-392q-6 0 -11 5.5t-8.5 13.5t-4.5 17.5t1 17.5l44 162q5 18 17.5 42t27 45t28 36t21.5 15h187q10 0 4 -23q-3 -11 -9 -24t-13 -24t-13 -18.5t-10 -7.5z" />
    <glyph glyph-name="FL0080h" unicode="b" horiz-adv-x="553" 
d="M341 491h128q5 0 9 -16l-12 -44q-2 -6 -6 -13t-9 -16l1 1q-17 -20 -45 -37.5t-49 -31.5q-7 -5 -13.5 -9t-10.5 -6q-2 -9 -6 -28t-4 -28q4 -4 4 -8t1 -5l4 -16t9 -16q19 5 32.5 10t27.5 11l10 4q2 -8 0 -17l-33 -122q-14 -15 -18 -15h-128zM32 0h460q12 0 24 18.5
t22.5 42.5t17.5 46.5t9 30.5q8 30 12.5 55.5t2.5 47.5q-4 10 -11.5 22.5t-15.5 26.5q16 14 30 26t23 23q14 22 23 47.5t17 55.5q1 5 3.5 17t5.5 27.5t5 32t2 29.5q0 14 -3.5 23t-11.5 9h-460z" />
    <glyph glyph-name="c" unicode="c" horiz-adv-x="522" 
d="M69 0q-6 0 -11 5.5t-8.5 13.5t-4.5 17.5t1 17.5l108 403q4 16 18.5 37.5t34 40.5t41 32t40.5 13h365l-15 -56q-8 -31 -30 -51t-51.5 -32t-61.5 -16.5t-60 -4.5l19 72h-87q-1 -1 -3 -2.5t-5 -4.5v1q-8 -6 -14 -13t-17 -25l-90 -337q-1 -5 -1.5 -9t-0.5 -6q0 -8 3 -8h99
q2 1 4 3t6 4l17 62h175l-42 -157h-429z" />
    <glyph glyph-name="FL007Dh" unicode="d" 
d="M340 491h108q5 0 12 -5.5t5 -10.5l-99 -370q-2 -5 -10.5 -10.5t-15.5 -5.5h-108zM187 580l-155 -580h380q18 0 39.5 12.5t41 31t34 40t19.5 39.5l89 334q4 16 1 37t-12 40t-23.5 32.5t-33.5 13.5h-380z" />
    <glyph glyph-name="FL0066h" unicode="e" horiz-adv-x="523" 
d="M653 580h-466l-155 -580h466l42 157h-175l-18 -68h-115l45 168h181q9 0 15 22q3 11 4 24t0.5 24.5t-2.5 19t-6 7.5h-166l37 138h114l-19 -72q28 0 60 4.5t61.5 16.5t51.5 32t30 51z" />
    <glyph glyph-name="FL0067h" unicode="f" horiz-adv-x="518" 
d="M653 580h-466l-155 -580h176l61 227h181q9 0 15 23q3 11 4 24t0.5 24t-2.5 18.5t-6 7.5h-166l45 168h115l-27 -102q28 0 61 8t63 23.5t53 39t31 53.5z" />
    <glyph glyph-name="FL0068h" unicode="g" horiz-adv-x="522" 
d="M463 0h-394q-6 0 -11 5.5t-8.5 13.5t-4.5 17.5t1 17.5l108 403q4 16 18.5 37.5t34 40.5t41 32t40.5 13h365l-15 -56q-8 -31 -30 -51t-51.5 -32t-61.5 -16.5t-60 -4.5l19 72h-87q-1 -1 -3 -2.5t-5 -4.5v1q-8 -6 -14 -13t-17 -25l-90 -337q-1 -5 -1.5 -9t-0.5 -6q0 -8 3 -8
h101q4 2 8.5 9t6.5 14l13 49q7 25 8 49.5t-6 47.5h-43q-9 0 -3 22q3 11 9 24t12.5 24.5t12.5 19t10 7.5h169q5 0 9.5 -8.5t7.5 -22.5t5 -31t2 -34t-5 -42l-44 -162q-2 -8 -7 -17.5t-12 -17.5t-15 -13.5t-15 -5.5z" />
    <glyph glyph-name="FL006Bh" unicode="h" 
d="M32 0l155 580h176l-60 -226h130l60 226h175l-155 -580h-175l69 257h-130l-69 -257h-176z" />
    <glyph glyph-name="FL0069h" unicode="i" horiz-adv-x="232" 
d="M187 580l-155 -580h176l155 580h-176z" />
    <glyph glyph-name="FL004Ah" unicode="j" horiz-adv-x="517" 
d="M506 54q-2 -8 -8 -17.5t-13.5 -17.5t-15.5 -13.5t-14 -5.5h-342q-15 0 -25.5 16.5t-16.5 40t-7.5 48t2.5 40.5l1 5q5 16 10.5 32.5t16.5 33.5h171q-8 -17 -12.5 -30t-7.5 -27q-3 -11 -4 -23.5t0.5 -23t5.5 -17.5t10 -7h76q3 0 7.5 8t6.5 15l125 469h175z" />
    <glyph glyph-name="FL006Eh" unicode="k" horiz-adv-x="534" 
d="M371 120l-7 -15v1q-2 -4 -12.5 -25.5t-21.5 -47.5q-4 -7 -8.5 -16.5t-7.5 -16.5h161q12 0 24 18.5t22.5 42.5t17.5 46.5t9 30.5q8 29 12 55.5t-1 49.5q-2 12 -14 22.5t-26 20.5q-11 8 -19 14t-8 11l3 8v-1l192 262h-186q-8 -5 -27.5 -29t-43.5 -56t-47.5 -66t-38.5 -59
l-34 26l49 184h-177l-155 -580h177l75 281q6 -5 11.5 -8.5t10.5 -7.5q19 -14 35.5 -28t27 -30.5t13 -37.5t-5.5 -50v1z" />
    <glyph glyph-name="FL0070h" unicode="l" horiz-adv-x="523" 
d="M187 580l-155 -580h466l42 157h-175l-18 -68h-115l131 491h-176z" />
    <glyph glyph-name="FL0082h" unicode="m" horiz-adv-x="762" 
d="M188 580h175q10 0 23 -6.5t26.5 -18t26 -27.5t21.5 -35l23 87h182q35 -23 61 -43.5t45.5 -42t33.5 -44.5t25 -50q3 -6 3 -18q0 -16 -4 -36.5t-7 -31.5l-84 -314h-177l94 351q2 6 -4 19t-16.5 26.5t-22.5 25t-22 15.5l-117 -437h-174l92 343q-6 23 -25.5 49t-39.5 43
l-117 -435h-176z" />
    <glyph glyph-name="FL007Eh" unicode="n" 
d="M32 0l155 580h380q19 0 33.5 -13.5t23.5 -32.5t12 -40t-1 -37l-122 -457h-175l127 475q2 5 -5 10.5t-12 5.5h-108l-132 -491h-176z" />
    <glyph glyph-name="FL006Fh" unicode="o" 
d="M154 457q4 16 18.5 37t34 40t41.5 32.5t40 13.5h279q19 0 33.5 -13.5t23.5 -32.5t12 -40t-1 -37l-89 -334q-5 -18 -19.5 -39.5t-34 -40t-41 -31t-39.5 -12.5h-279q-18 0 -33 12.5t-24.5 31t-12.5 40t2 39.5zM361 491q-5 0 -14.5 -5.5t-11.5 -10.5l-99 -370q-2 -5 4 -10.5
t13 -5.5h87q7 0 15.5 5.5t10.5 10.5l99 370q2 5 -5 10.5t-12 5.5h-87z" />
    <glyph glyph-name="FL00DEh" unicode="p" horiz-adv-x="548" 
d="M32 0l155 580h460q8 0 11.5 -9t3.5 -23q0 -13 -2 -29.5t-5 -32t-5.5 -27.5t-3.5 -17q-8 -29 -17.5 -55.5t-24.5 -49.5q-8 -10 -26 -26.5t-37.5 -32.5t-35.5 -28t-20 -14l3 1q-35 -23 -75.5 -37t-82.5 -27q-8 10 -13 20.5t-3 28.5v-1q-1 9 2.5 26t5.5 26q4 2 10.5 6.5
t12.5 8.5q13 8 30.5 18.5t33.5 22.5t28 24.5t15 24.5l26 97q-4 16 -9 16h-128l-132 -491h-177z" />
    <glyph glyph-name="FL00B9h" unicode="q" 
d="M154 457q4 16 18.5 37t34 40t41.5 32.5t40 13.5h279q19 0 33.5 -13.5t23.5 -32.5t12 -40t-1 -37l-89 -334q-5 -18 -19.5 -39.5t-34 -40t-41 -31t-39.5 -12.5h-53q-1 -2 -0.5 -3.5t-0.5 -3.5q-1 -3 -2 -7.5t-4 -13.5q-1 -3 -1 -17v-25q0 -14 0.5 -27.5t1.5 -26.5h-162
q-11 0 -14 15.5t-2 36t4.5 41t6.5 31.5h-53q-18 0 -32.5 13.5t-23.5 32.5t-12.5 40t0.5 37zM335 474l-95 -356q9 9 18.5 15.5t20.5 13.5q17 11 28.5 20.5t16.5 20.5h64l77 286q2 5 -5.5 10.5t-12.5 5.5h-87q-5 0 -14 -5.5t-11 -10.5z" />
    <glyph glyph-name="FL00B6h" unicode="r" horiz-adv-x="557" 
d="M32 0h177l132 491h128q5 0 9 -16l-26 -97q-6 -23 -25 -34.5t-41 -20.5q-22 -8 -40 -18.5t-24 -33.5q-3 -9 -2.5 -21t0.5 -21q1 -24 6.5 -61t12.5 -72.5t14 -63t12 -32.5h185l-52 262v-1l1 8q3 8 15.5 15.5t29.5 15.5q18 9 34 17.5t24 19.5q18 23 27.5 49.5t17.5 55.5
q1 5 3.5 17t5.5 27.5t5 32t1.5 30t-4 22.5t-11.5 9h-460z" />
    <glyph glyph-name="FL0073h" unicode="s" horiz-adv-x="494" 
d="M79 0q-7 0 -12.5 13.5t-8 33t-1.5 42.5t6 41q3 13 7.5 23.5t14.5 24.5h168q-1 -2 -2.5 -7t-2.5 -7q-2 -5 -4 -9.5t-3 -9.5q-6 -22 -7 -39t7 -17h67q3 0 17 15l6 23q6 21 -14.5 43t-50.5 48q-24 21 -49 45.5t-43.5 55t-26 67.5t4.5 82q2 7 8.5 25.5t15.5 38t20 34t23 14.5
h360q7 0 12.5 -13.5t8 -33t1.5 -42.5t-6 -41q-4 -13 -8 -23.5t-13 -24.5h-170q1 2 2.5 7t1.5 7q2 5 4 9.5t4 9.5q5 22 6.5 39t-5.5 17h-67q-3 -2 -8.5 -6t-10.5 -11l-6 -22q-7 -25 16 -52t55 -57q23 -23 46.5 -48t40.5 -53t24 -60.5t-3 -69.5q-2 -8 -8 -26t-14.5 -36.5
t-19 -33.5t-22.5 -16h-361z" />
    <glyph glyph-name="FL0077h" unicode="t" horiz-adv-x="617" 
d="M187 580l-46 -175h159l23 87h33l-132 -492h176l132 492h28l-23 -87q28 0 59.5 5t59.5 17.5t49 33t29 51.5l18 68h-565z" />
    <glyph glyph-name="FL0075h" unicode="u" 
d="M187 580l-122 -457q-4 -16 -0.5 -37t12.5 -40t23.5 -32.5t32.5 -13.5h279q18 0 39.5 12.5t41 31t34 40t19.5 39.5l122 457h-175l-127 -475q-2 -5 -10.5 -10.5t-15.5 -5.5h-87q-11 0 -13.5 5t-2.5 13l126 473h-176z" />
    <glyph glyph-name="FL0076h" unicode="v" horiz-adv-x="495" 
d="M187 580l-155 -580h211q90 43 151 85t110 95q6 7 12 18.5t11 24t8.5 24t5.5 19.5l84 314h-175l-94 -351q-2 -8 -14.5 -20.5t-29.5 -26t-35 -24.5t-31 -15l117 437h-176z" />
    <glyph glyph-name="w" unicode="w" horiz-adv-x="762" 
d="M33 0h175q10 0 26.5 6.5t36 18t40.5 27.5t40 35l-23 -87h182q45 21 82 42t68.5 42.5t58.5 45t52 50.5q6 7 12 18.5t11 24t9 24t6 19.5l84 314h-177l-94 -351q-2 -7 -15 -20t-30 -26.5t-35.5 -25t-30.5 -15.5l117 438h-174l-92 -344q-9 -11 -22 -23.5t-29 -25t-32 -23.5
t-31 -19l116 435h-176z" />
    <glyph glyph-name="FL0078h" unicode="x" horiz-adv-x="578" 
d="M235 105q0 -4 -0.5 -20.5t-1.5 -36.5q-1 -11 -2 -24.5t-1 -23.5h-161q-12 0 -14 18.5t0.5 42.5t7 46.5t6.5 30.5q8 29 18 55.5t27 49.5q8 12 24.5 20.5t32.5 16.5q17 8 30.5 15.5t16.5 15.5l1 8v-1l-53 262h186q4 -5 10 -33.5t12 -65.5t10.5 -75.5t6.5 -64.5l10 6
q35 20 61.5 39t34.5 49q1 1 1 7q0 -1 2 9q1 4 2 9t3 13v1v1v-1q1 1 1 21q0 8 0.5 17.5t1.5 19.5q1 11 2 24.5t1 23.5h161q8 0 11.5 -9t3.5 -23q0 -13 -2 -29.5t-5 -32t-5.5 -27.5t-3.5 -17q-8 -29 -17.5 -55.5t-27.5 -49.5q-8 -11 -24 -19.5t-34 -17.5q-17 -8 -29.5 -15.5
t-15.5 -15.5l-1 -8v1l53 -262h-187q-5 4 -11.5 31.5t-12.5 64.5t-10.5 75.5t-5.5 64.5q-22 -11 -39.5 -19.5t-30.5 -18.5t-21.5 -22.5t-12.5 -30.5q-1 -4 -1.5 -7.5t-1.5 -8.5q-2 -5 -3 -10.5t-3 -13.5z" />
    <glyph glyph-name="FL0059h" unicode="y" horiz-adv-x="523" 
d="M135 386l52 194h176l-56 -209q0 -8 3 -13t14 -5h94l60 227h175l-141 -526q-2 -8 -8 -17.5t-13.5 -17.5t-15.5 -13.5t-14 -5.5h-338q-14 0 -25.5 16.5t-19 40t-9.5 48t2 40.5l1 5q5 16 10.5 32.5t16.5 33.5h171q-7 -17 -11.5 -30t-7.5 -27q-3 -11 -4 -23.5t0.5 -23
t5.5 -17.5t10 -7h76q3 0 7.5 8t6.5 15l40 152h-190q-18 0 -32.5 13.5t-23.5 32.5t-12.5 40t0.5 37z" />
    <glyph glyph-name="FL0083h" unicode="z" horiz-adv-x="504" 
d="M478 0l35 130q4 14 4.5 24.5t-1.5 23.5h-151q-3 -12 -3 -17v1q0 -4 -0.5 -8t-1.5 -9l-15 -56h-112l10 38q6 21 39.5 44.5t78.5 51.5q36 22 74 47t72 55t60 65.5t37 77.5l30 112h-447l-34 -130q-4 -14 -4.5 -24.5t2.5 -23.5h151l1.5 7.5l0.5 2.5v7v-1q1 1 1 9l0.5 2l1.5 6
l15 56h112l-11 -39q-7 -25 -43.5 -52t-85.5 -57q-35 -23 -72 -48t-69 -53t-56.5 -60.5t-34.5 -69.5l-30 -112h446z" />
    <glyph glyph-name="FL0081h" unicode="{" horiz-adv-x="324" 
d="M178 546l-118 -443q-5 -17 -2 -38t12 -40t23.5 -32t34.5 -13h167l23 89h-65q-2 2 -2 3q0 2 -2 4v-1q-5 6 -7 13t-4 24l101 377q2 7 6.5 15t6.5 8h85l24 88h-230q-6 0 -14.5 -5.5t-16.5 -13.5t-14 -17.5t-8 -17.5z" />
    <glyph glyph-name="FL007Ch" unicode="|" horiz-adv-x="232" 
d="M219 697l-218 -813h176l218 813h-176z" />
    <glyph glyph-name="FL0084h" unicode="}" horiz-adv-x="324" 
d="M309 34l119 443q4 16 1 37.5t-12 40.5t-23.5 32t-33.5 13h-167l-24 -88h65q1 -2 2 -3.5t2 -3.5l1 1q4 -6 6 -13t4 -25l-100 -376q-2 -7 -7 -15t-7 -8h-85l-23 -89h231q6 0 14 5.5t15.5 13.5t13.5 17.5t8 17.5z" />
    <glyph glyph-name="FL006Dh" unicode="~" horiz-adv-x="762" 
d="M893 580h-176q-10 0 -27 -6.5t-36.5 -18t-40.5 -27.5t-39 -35l23 87h-182q-47 -23 -84 -44t-68 -42t-57.5 -44t-51.5 -50q-6 -7 -11.5 -18.5t-10.5 -24t-9 -24.5t-6 -19l-84 -314h176l92 345q2 6 15 18.5t30.5 25.5t35.5 24.5t30 15.5l-115 -429h175l90 337q20 23 52 48
t61 43l-115 -428h178z" />
    <glyph glyph-name="FL007Fh" horiz-adv-x="188" 
 />
    <glyph glyph-name="FL20ACh" unicode="&#x20ac;" horiz-adv-x="612" 
d="M158 0h430l42 157h-175l-17 -62q-4 -2 -6 -4t-4 -3h-99q-3 0 -3.5 8t1.5 15l15 56l74 6q4 0 10 7.5t13 18.5t13 24.5t9 24.5q6 22 -4 22h-88l12 44h73q4 0 10 7.5t13 18.5t13 24t9 24q6 23 -4 23h-88l10 37q11 18 17 25t14 13v-1q3 3 5 4.5t3 2.5h88l-19 -72q28 0 60 4.5
t61.5 16.5t51.5 32t30 51l15 56h-366q-19 0 -40.5 -13t-41 -32t-34 -40.5t-18.5 -37.5l-12 -46h-64q-4 0 -10.5 -7.5t-13 -19t-12.5 -24.5t-9 -24q-6 -22 4 -22h79l-12 -44h-64q-4 0 -10 -7.5t-12.5 -18.5t-12.5 -24t-9 -24q-8 -23 3 -23h79l-32 -119q-2 -8 -1 -17.5
t4 -17.5t8.5 -13.5t11.5 -5.5z" />
    <glyph glyph-name="FL201Ah" unicode="&#x201a;" horiz-adv-x="214" 
d="M48 79q-9 -34 8 -56t51 -24l-23 -86q35 8 55 30t36 48h-1q3 4 9 16t12.5 26t12 27t7.5 19q9 34 -8.5 58.5t-52.5 24.5q-17 0 -34.5 -6.5t-32 -18t-25 -26.5t-14.5 -32z" />
    <glyph glyph-name="FL0074h" unicode="&#x192;" horiz-adv-x="542" 
d="M187 580h485l-23 -88h-154l-132 -492h-176l132 492h-155z" />
    <glyph glyph-name="FL201Eh" unicode="&#x201e;" horiz-adv-x="404" 
d="M48 79q-9 -34 8 -56t51 -24l-23 -86q35 8 55 30t36 48h-1q3 4 9 16t12.5 26t12 27t7.5 19q9 34 -8.5 58.5t-52.5 24.5q-17 0 -34.5 -6.5t-32 -18t-25 -26.5t-14.5 -32zM239 79q-9 -34 7.5 -56t50.5 -24l-23 -86q35 8 55 30t36 48h-1q3 4 9 16t12.5 26t12 27t7.5 19
q9 34 -8.5 58.5t-52.5 24.5q-17 0 -34 -6.5t-31.5 -18t-25 -26.5t-14.5 -32z" />
    <glyph glyph-name="FL2026h" unicode="&#x2026;" horiz-adv-x="627" 
d="M255 79q-9 -35 8.5 -58.5t53.5 -23.5t65.5 24t39.5 58q9 34 -8.5 58t-52.5 24q-36 0 -66.5 -24t-39.5 -58zM49 79q-9 -35 8.5 -58.5t52.5 -23.5q36 0 66 24t40 58q9 34 -9 58t-53 24q-17 0 -34 -6.5t-31.5 -17.5t-25 -26t-14.5 -32zM461 79q-9 -35 9 -58.5t53 -23.5
q36 0 66 24t40 58q9 34 -9 58t-53 24q-17 0 -34.5 -6.5t-32 -17.5t-25 -26t-14.5 -32z" />
    <glyph glyph-name="FL2020h" unicode="&#x2020;" horiz-adv-x="432" 
d="M396 329h75q4 0 10 7.5t13 19t13 24.5t9 24q6 23 -4 23h-90l41 153h-176l-41 -153h-75q-4 0 -10.5 -7.5t-13 -19t-12.5 -24.5t-9 -24q-6 -23 4 -23h90l-88 -329h176z" />
    <glyph glyph-name="FL2021h" unicode="&#x2021;" horiz-adv-x="432" 
d="M396 329h75q4 0 10 7.5t13 19t13 24.5t9 24q6 23 -4 23h-90l41 153h-176l-41 -153h-75q-4 0 -10.5 -7.5t-13 -19t-12.5 -24.5t-9 -24q-6 -23 4 -23h90l-13 -48h-75q-4 0 -10.5 -7.5t-13 -19t-12.5 -24.5t-9 -24q-6 -22 4 -22h90l-49 -184h176l49 184h75q4 0 10 7.5
t13 18.5t13 24.5t9 24.5q6 22 -4 22h-90z" />
    <glyph glyph-name="FL02C6h" unicode="&#x2c6;" horiz-adv-x="448" 
d="M319 790l-120 -160h159l58 76l19 -76h159l-33 160h-242z" />
    <glyph glyph-name="FL2030h" unicode="&#x2030;" horiz-adv-x="1108" 
d="M779 580l-420 -580h-168l421 580h167zM878 249q2 9 10 21t19 23t23.5 18.5t24.5 7.5h155q12 0 20.5 -7.5t14 -18.5t7 -23t-0.5 -21l-48 -179q-3 -11 -12 -23t-20 -22.5t-23.5 -17.5t-22.5 -7h-155q-11 0 -19.5 7t-14 17.5t-7.5 22.5t1 23zM170 510q2 9 10 21.5t18.5 23
t23 18t24.5 7.5h156q11 0 19.5 -7.5t14 -18t7 -23t-0.5 -21.5l-48 -179q-3 -11 -12 -23t-20 -22.5t-23 -17.5t-22 -7h-156q-11 0 -19.5 7t-14 17.5t-7 22.5t1.5 23zM578 249q2 9 10 21t19 23t23.5 18.5t24.5 7.5h155q12 0 20.5 -7.5t14 -18.5t7 -23t-0.5 -21l-48 -179
q-3 -11 -12 -23t-20 -22.5t-23.5 -17.5t-22.5 -7h-155q-11 0 -19.5 7t-14 17.5t-7.5 22.5t1 23zM284 497q-4 0 -7 -3l-39 -147q-2 -3 5 -3h36q5 0 7 3l39 147q1 1 -1 2t-4 1h-36zM692 236q-4 0 -7 -3l-39 -147q0 -3 5 -3h37q7 0 7 3l39 147q1 1 -1 2t-4 1h-37zM992 236
q-4 0 -7 -3l-39 -147q0 -3 5 -3h37q7 0 7 3l39 147q1 1 -1 2t-4 1h-37z" />
    <glyph glyph-name="FL0160h" unicode="&#x160;" horiz-adv-x="486" 
d="M300 89h-133q-17 -1 -37.5 -7t-40 -17.5t-36.5 -27.5t-28 -37h405q12 0 23 14.5t20 34t15 37.5t8 26q17 61 3 107t-59 72h1q-11 12 -34 25t-45.5 28.5t-37 35t-6.5 44.5l13 51q13 16 19 16h133q16 1 36 7t39.5 17t36.5 27.5t28 37.5h-404q-12 0 -23 -14.5t-20 -34
t-15.5 -38t-8.5 -25.5q-4 -15 -6 -25t-2.5 -19t0 -17.5t1.5 -20.5q16 -36 31 -60t31.5 -40.5t37 -28.5t48.5 -25l-1 1q18 -17 31 -37.5t8 -39.5l-14 -52q-12 -15 -17 -15z" />
    <glyph glyph-name="FL2039h" unicode="&#x2039;" horiz-adv-x="216" 
d="M81 184l139 -77l42 159l-64 39l85 39l43 159l-180 -76z" />
    <glyph glyph-name="FL0152h" unicode="&#x152;" horiz-adv-x="840" 
d="M47 54l108 403q4 16 18.5 37.5t34 40.5t41 32t40.5 13h674q1 -14 -1 -29t-6 -27q-8 -31 -29.5 -51t-49.5 -32t-60 -16.5t-60 -4.5q8 14 10.5 19.5t4.5 10.5q3 14 2 22.5t-5 19.5h-115l-37 -138h168q4 0 6 -7.5t3 -19t0 -24.5t-4 -24q-6 -22 -16 -22h-183l-44 -163h121
q2 0 5 4.5t6 10.5v-1q0 2 1 2.5t1 2.5l5 13q3 9 1 31h171l-42 -157h-746q-6 0 -11.5 5.5t-8.5 13.5t-4 17.5t1 17.5zM239 111q-2 -7 -1.5 -15t3.5 -8h129l108 404h-109q-1 -1 -3 -2.5t-5 -4.5v1q-8 -6 -14 -13t-18 -25z" />
    <glyph glyph-name="FL005Ah" unicode="&#x17d;" horiz-adv-x="486" 
d="M242 89h133q16 -1 33 -7t30.5 -17.5t22 -27.5t7.5 -37h-404q-12 0 -15.5 14.5t-2 34t5 37.5t5.5 26q17 61 56 107t97 72h-1q18 13 47.5 25.5t59.5 28t54.5 34.5t32.5 45l13 51q-3 16 -8 16h-133q-17 1 -34 7t-30.5 17.5t-22 27.5t-8.5 37h405q12 0 15.5 -14.5t2 -34
t-5.5 -38t-6 -25.5q-4 -15 -7.5 -25t-7.5 -18.5t-9 -17.5t-12 -21q-36 -36 -63.5 -60t-52.5 -40.5t-52 -28.5t-62 -25l1 1q-26 -17 -50.5 -37.5t-29.5 -39.5l-14 -52q4 -15 10 -15z" />
    <glyph glyph-name="FL2018h" unicode="&#x2018;" horiz-adv-x="214" 
d="M305 416q9 32 -7.5 54.5t-49.5 24.5l23 86q-35 -8 -56.5 -29.5t-37.5 -48.5l1 1q-3 -3 -9 -15t-12 -26.5t-11.5 -27.5t-7.5 -19q-9 -34 9 -58.5t53 -24.5q36 0 65.5 24.5t39.5 58.5z" />
    <glyph glyph-name="FL2019h" unicode="&#x2019;" horiz-adv-x="214" 
d="M160 498q-8 -33 9 -55t50 -24l-23 -86q35 8 56.5 30t36.5 48l-1 -1q3 4 9.5 16.5t12.5 26.5t11 27t6 18q10 35 -7.5 59t-52.5 24q-18 0 -35 -6.5t-31.5 -18t-25 -26.5t-15.5 -32z" />
    <glyph glyph-name="FL201Ch" unicode="&#x201c;" horiz-adv-x="407" 
d="M499 417q8 32 -8.5 54.5t-49.5 24.5l23 86q-35 -8 -56 -29.5t-38 -48.5l1 1q-3 -3 -9 -15t-12.5 -26t-11.5 -27.5t-6 -19.5q-9 -34 8.5 -58.5t52.5 -24.5q18 0 35 6.5t31 18t24.5 26.5t15.5 32zM306 417q8 32 -8.5 54.5t-49.5 24.5l23 86q-35 -8 -56 -29.5t-38 -48.5l1 1
q-3 -3 -9 -15t-12.5 -26t-11.5 -27.5t-6 -19.5q-9 -34 8.5 -58.5t52.5 -24.5q18 0 35 6.5t31 18t24.5 26.5t15.5 32z" />
    <glyph glyph-name="FL201Dh" unicode="&#x201d;" horiz-adv-x="407" 
d="M161 499q-9 -33 8 -55t51 -24l-24 -86q35 8 56.5 30t36.5 48l-1 -1q3 4 9 16.5t12 26.5t11.5 27t7.5 18q9 35 -8.5 59t-52.5 24q-17 0 -34.5 -6.5t-32 -18t-25 -26.5t-14.5 -32zM354 499q-9 -33 8 -55t51 -24l-24 -86q35 8 56.5 30t36.5 48l-1 -1q3 4 9 16.5t12 26.5
t11.5 27t7.5 18q9 35 -8.5 59t-52.5 24q-17 0 -34.5 -6.5t-32 -18t-25 -26.5t-14.5 -32z" />
    <glyph glyph-name="FL2022h" unicode="&#x2022;" 
d="M154 457q4 16 18.5 37t34 40t41.5 32.5t40 13.5h279q19 0 33.5 -13.5t23.5 -32.5t12 -40t-1 -37l-89 -334q-5 -18 -19.5 -39.5t-34 -40t-41 -31t-39.5 -12.5h-279q-18 0 -33 12.5t-24.5 31t-12.5 40t2 39.5z" />
    <glyph glyph-name="FL2013h" unicode="&#x2013;" horiz-adv-x="311" 
d="M111 257h220q3 0 9.5 7.5t13 18.5t12.5 24t9 24q6 23 -4 23h-219q-4 0 -10.5 -7.5t-13 -19t-12.5 -24.5t-9 -24q-6 -22 4 -22z" />
    <glyph glyph-name="FL2014h" unicode="&#x2014;" horiz-adv-x="405" 
d="M111 257h314q3 0 9.5 7.5t13 18.5t12.5 24t9 24q6 23 -4 23h-313q-4 0 -10.5 -7.5t-13 -19t-12.5 -24.5t-9 -24q-6 -22 4 -22z" />
    <glyph glyph-name="FL02DCh" unicode="&#x2dc;" horiz-adv-x="450" 
d="M592 630l120 160h-155l-57 -76l-19 76h-162l-120 -160h155l56 76l20 -76h162z" />
    <glyph glyph-name="trademark" unicode="&#x2122;" horiz-adv-x="396" 
d="M228 576l-41 -153h38l41 153h61l11 39h-160l-11 -39h61zM355 608l-50 -185h32l27 101l1 4l19 -89q-2 -8 -0.5 -12t9.5 -4q11 0 21 12.5t34 45.5q6 10 13.5 21t18.5 25l-28 -104h33l51 188l-9 4q-17 0 -35 -17t-50 -68h1l-26 -33l-12 53l1 -1q2 26 -8.5 46t-17.5 20
q-18 0 -25 -7z" />
    <glyph glyph-name="FL0161h" unicode="&#x161;" horiz-adv-x="494" 
d="M79 0q-7 0 -12.5 13.5t-8 33t-1.5 42.5t6 41q4 14 8 24.5t14 24.5h168q-1 -2 -2.5 -7t-2.5 -7q-2 -5 -3.5 -10t-3.5 -10q-6 -21 -7 -38t7 -17h67q3 0 17 15l7 25q5 21 -14.5 43t-49.5 47q-24 21 -49.5 45.5t-44 54.5t-26 67t4.5 83q2 7 8 26t15 38t20.5 34t23.5 15h360
q7 0 12.5 -13.5t7.5 -33.5t1 -42.5t-6 -41.5q-4 -14 -8 -24t-13 -24h-170q1 2 2.5 7t2.5 7q2 5 3.5 9.5t3.5 9.5q6 22 7 39t-6 17h-67q-3 -2 -8 -6t-10 -11l-7 -25q-6 -26 16 -51.5t55 -56.5q23 -22 46.5 -46.5t40.5 -52.5t24 -60.5t-3 -70.5q-2 -8 -8 -26t-14.5 -37
t-19 -34t-22.5 -16h-361zM660 790l-119 -160h-242l-33 160h158l18 -76l59 76h159z" />
    <glyph glyph-name="FL203Ah" unicode="&#x203a;" horiz-adv-x="216" 
d="M61 107l179 77l65 243l-138 76l-43 -159l66 -39l-87 -39z" />
    <glyph glyph-name="FL0153h" unicode="&#x153;" horiz-adv-x="840" 
d="M47 54l108 403q4 16 18.5 37.5t34 40.5t41 32t40.5 13h674q1 -14 -1 -29t-6 -27q-8 -31 -29.5 -51t-49.5 -32t-60 -16.5t-60 -4.5q8 14 10.5 19.5t4.5 10.5q3 14 2 22.5t-5 19.5h-115l-37 -138h168q4 0 6 -7.5t3 -19t0 -24.5t-4 -24q-6 -22 -16 -22h-183l-44 -163h121
q2 0 5 4.5t6 10.5v-1q0 2 1 2.5t1 2.5l5 13q3 9 1 31h171l-42 -157h-746q-6 0 -11.5 5.5t-8.5 13.5t-4 17.5t1 17.5zM239 111q-2 -7 -1.5 -15t3.5 -8h129l108 404h-109q-1 -1 -3 -2.5t-5 -4.5v1q-8 -6 -14 -13t-18 -25z" />
    <glyph glyph-name="FL017Eh" unicode="&#x17e;" horiz-adv-x="504" 
d="M32 0l30 113q10 37 34.5 69.5t56.5 61t69 53.5t72 48q49 30 86 57t44 52l10 39h-112l-15 -56l-2 -10q-1 -8 -2 -12.5t-2 -10.5h-152q-2 14 -1 24t5 24l35 131h447l-30 -113q-12 -43 -38 -78.5t-60 -65.5t-72 -55t-74 -47q-45 -28 -78.5 -51.5t-39.5 -45.5l-10 -37h112
l15 55q3 10 3 20q1 2 1.5 7t1.5 7h151q2 -14 1 -24.5t-5 -24.5l-35 -130h-446zM665 790l-119 -160h-242l-33 160h158l18 -76l58 76h160z" />
    <glyph glyph-name="FL0178h" unicode="&#x178;" horiz-adv-x="523" 
d="M136 388l52 195h176l-56 -211q-1 -8 2 -12.5t14 -4.5h94l61 228h175l-142 -529q-2 -8 -8 -17.5t-13.5 -17.5t-15.5 -13.5t-14 -5.5h-338q-14 0 -25.5 17t-19 40t-9.5 48t2 40l1 6q5 16 10.5 32.5t16.5 33.5h171q-7 -17 -11 -30t-8 -27q-3 -11 -4 -23.5t0.5 -23t5.5 -17.5
t10 -7h76q3 0 7.5 8t6.5 15l41 153h-190q-18 0 -32.5 13.5t-23.5 32.5t-12.5 40t0.5 37zM475 709q4 17 14.5 32t25 26.5t31.5 18t34 6.5q35 0 52.5 -24.5t8.5 -58.5q-10 -34 -39.5 -58t-65.5 -24q-35 0 -52.5 24t-8.5 58zM268 709q4 17 14.5 32t25 26.5t32 18t34.5 6.5
q35 0 52.5 -24.5t8.5 -58.5q-10 -34 -39.5 -58t-65.5 -24q-35 0 -53 24t-9 58z" />
    <glyph glyph-name="space" unicode="&#xa0;" horiz-adv-x="291" 
 />
    <glyph glyph-name="FL00A1h" unicode="&#xa1;" horiz-adv-x="232" 
d="M170 501q-9 -34 8.5 -58t52.5 -24q36 0 66.5 24t39.5 58q10 35 -8 58.5t-54 23.5q-18 0 -34.5 -6.5t-30.5 -17.5t-24.5 -26t-15.5 -32zM136 388l-104 -388h176l104 388h-176z" />
    <glyph glyph-name="FL00A2h" unicode="&#xa2;" horiz-adv-x="522" 
d="M505 608l-20 -76h104q7 0 12.5 -13.5t8 -33t1.5 -42t-6 -40.5q-4 -14 -8 -25t-14 -25h-151q0 2 2 7t2 7q2 5 4 10.5t4 10.5q5 21 6.5 38t-6.5 17h-90q-1 -1 -3 -2.5t-5 -4.5v1q-8 -6 -14 -13t-17 -24l-64 -240q-1 -5 -1.5 -8.5t-0.5 -5.5q0 -8 3 -8h94q6 0 13.5 7
t15 17.5t13.5 23t9 23.5q4 13 6 25.5t4 30.5h152q2 -17 -1 -33t-7 -32l-2 -6q-4 -15 -19.5 -40t-35.5 -48t-40.5 -40t-34.5 -17h-64l-21 -79h-154l21 79h-119q-6 0 -11 5.5t-8 13.5t-4 17.5t1 17.5l82 306q4 16 18.5 37.5t33.5 40.5t41 32t41 13h55l20 76h154z" />
    <glyph glyph-name="FL00A3h" unicode="&#xa3;" horiz-adv-x="649" 
d="M571 257h-207l-41 -152q1 -2 2 -3.5t2 -3.5h155l16 59h168l-42 -157h-582q-10 0 -4 23q3 11 9 24t12.5 24t13 18.5t10.5 7.5h61q1 6 2 11.5t3 11.5l5 18q8 30 18 55.5t24 47.5q3 3 6 7t8 9h-99q-10 0 -4 22q3 11 9 24t12.5 24.5t13 19t10.5 7.5h69q0 19 4 41.5t10 46.5
q2 7 9 29.5t17.5 46.5t22.5 43t24 19h326q1 -14 -1 -29t-6 -27q-8 -31 -28 -51.5t-46 -33t-56.5 -17.5t-58.5 -5l20 74h-31l-37 -137h193q4 0 6 -7.5t2.5 -19t-0.5 -24.5t-4 -24q-6 -22 -16 -22z" />
    <glyph glyph-name="FL00A5h" unicode="&#xa4;" horiz-adv-x="580" 
d="M363 532q-10 -20 -18.5 -36.5t-10.5 -21.5t-3 -8.5t-2 -7.5q-1 -2 -2 -3.5t-1 -3.5q3 1 5.5 1.5t5.5 0.5h111q15 22 30.5 44t29 39t23.5 29t15 15h186l-193 -262v1l-3 -8q-2 -8 7.5 -15.5t21.5 -15.5q13 -9 24.5 -17.5t13.5 -19.5q5 -23 1 -49.5t-12 -55.5
q-2 -8 -9 -30.5t-17.5 -46.5t-22.5 -42.5t-24 -18.5h-162q9 18 20 41.5t19 40.5q2 3 2.5 6t2.5 5v-1q1 4 6 10h-1q3 5 3.5 7.5t2.5 7.5l3 9l2 7q-4 -1 -5.5 -1.5l-4.5 -1.5h-113q-15 -24 -30.5 -46t-28.5 -40t-23 -29.5t-14 -14.5h-187l193 262v-1l3 8q2 8 -8.5 15.5
t-22.5 15.5q-11 8 -23 16.5t-14 20.5q-5 23 -1 49.5t12 55.5q2 7 9.5 29.5t18 46.5t22.5 43t24 19h161q-5 -10 -11 -23.5t-11 -24.5zM374 371q-6 0 -6 -3l-41 -153q-2 -3 5 -3h36q5 0 7 3l41 153q0 3 -6 3h-36z" />
    <glyph glyph-name="FL00AAh" unicode="&#xa5;" horiz-adv-x="620" 
d="M549 184h71q4 0 10 7.5t12.5 18.5t12.5 24.5t9 24.5q6 22 -3 22h-86l13 48h71q4 0 10 7.5t12.5 19t12.5 24.5t9 24q6 23 -3 23h-86l41 153h-176l-60 -227h-94q-11 0 -14 5t-4 13l56 209h-176l-52 -194q-4 -16 -0.5 -37t12.5 -40t23.5 -32.5t33.5 -13.5h190l-40 -152
q-2 -7 -6.5 -15t-7.5 -8h-94q-6 0 -10 7t-5.5 17.5t-0.5 23t4 23.5q3 14 7.5 27t12.5 30h-154q-11 -17 -16.5 -33.5t-10.5 -32.5l-1 -5q-4 -16 -2 -40.5t9.5 -48t19 -40t26.5 -16.5h338q6 0 14 5.5t15.5 13.5t13.5 17.5t8 17.5z" />
    <glyph glyph-name="FL00A6h" unicode="&#xa6;" horiz-adv-x="232" 
d="M395 697h-176l-100 -372h176zM177 -116l105 393h-176l-105 -393h176z" />
    <glyph glyph-name="FL00A7h" unicode="&#xa7;" horiz-adv-x="579" 
d="M375 371h36q6 0 6 -3l-41 -153q-2 -3 -7 -3h-36q-7 0 -5 3l41 153q0 3 6 3zM507 473l-6 -22l-7.5 1.5t-1.5 0.5h-154q-12 0 -24.5 -7.5t-23 -18t-18.5 -23t-10 -21.5l-15 -54l-26 -13q-3 -2 -5.5 -3t-5.5 -3q-11 -6 -25 -13.5t-27.5 -16.5t-25 -18.5t-18.5 -18.5
q-17 -23 -27 -49.5t-18 -55.5q-2 -8 -6.5 -30.5t-7 -46.5t-0.5 -42.5t14 -18.5h161q0 23 2.5 47.5t2.5 39.5q0 19 1 20q2 10 2 9q0 7 1 8t1 7q1 -1 12 -1h154q10 0 22 7t23 17.5t20 22.5t12 23l14 53l23 11l-1 -1q10 4 25.5 12t31 18t30 21.5t22.5 22.5q17 23 26.5 49.5
t17.5 55.5q3 7 7.5 29.5t7 46.5t0 43t-13.5 19h-161q0 -10 -0.5 -23.5t-1.5 -24.5q-2 -22 -2.5 -39.5t-0.5 -19.5z" />
    <glyph glyph-name="FL00A8h" unicode="&#xa8;" horiz-adv-x="420" 
d="M424 709q-9 -34 8.5 -58t52.5 -24q36 0 66 24t40 58q9 34 -9 58.5t-53 24.5q-17 0 -34 -6.5t-31.5 -18t-25 -26.5t-14.5 -32zM217 709q-9 -34 9 -58t53 -24q36 0 65.5 24t39.5 58q9 34 -8.5 58.5t-52.5 24.5q-17 0 -34.5 -6.5t-32 -18t-25 -26.5t-14.5 -32z" />
    <glyph glyph-name="FL00A9h" unicode="&#xa9;" horiz-adv-x="277" 
d="M332 474l-27 9q-11 -33 -40 -33q-37 0 -25 42q12 44 49 44q21 0 24 -25l29 9q-2 45 -46 45q-34 0 -55.5 -16t-32.5 -55q-10 -38 3 -54t47 -16q47 0 74 50zM296 585h5q9 0 14 -0.5t9 -2t8 -3.5t11 -5l-1 1q8 -8 12 -14.5t9 -14.5l2 -4l2 -4q1 -5 1.5 -9.5t0.5 -9.5t-5 -25
l-3 -13q-4 -9 -7.5 -13t-11.5 -21q-37 -43 -90 -43q-43 0 -60 24t-6 66q5 18 16 34.5t25.5 29t32.5 20t36 7.5zM309 615q-36 0 -64 -16h1q-18 -8 -25.5 -13t-17.5 -16l-4.5 -4.5t-6.5 -5.5v-1h1l-5 -2q-13 -15 -20.5 -30.5t-12.5 -32.5q-5 -19 -6.5 -29t3.5 -26l2 -6
q7 -20 12.5 -27t16.5 -14q18 -19 61 -19q16 0 32.5 5t35.5 14l6 4l6 4h-1q9 5 19 12.5t23 22.5l-1 -1q21 18 31 60q10 36 1 59q-3 36 -34 46q-10 9 -23 12.5t-30 3.5z" />
    <glyph glyph-name="FL0062h" unicode="&#xaa;" horiz-adv-x="522" 
d="M69 0q-6 0 -11 5.5t-8.5 13.5t-4.5 17.5t1 17.5l44 162q5 18 17.5 42t27 45t28 36t21.5 15h169q4 0 6 -7.5t3 -19t0 -24.5t-4 -24q-6 -22 -16 -22h-44q-20 -23 -31 -47.5t-18 -49.5l-14 -51q-2 -7 -0.5 -13.5t3.5 -7.5h101q3 0 7.5 8t6.5 15l90 337q-3 18 -5 25t-6 13v-1
q-3 2 -4 7h-87l-19 -72q-28 0 -58 4.5t-53 16.5t-35 32t-4 51l15 56h365q19 0 33.5 -13t23.5 -32t12 -40.5t-1 -37.5l-108 -403q-2 -8 -8 -17.5t-13.5 -17.5t-15.5 -13.5t-14 -5.5h-392z" />
    <glyph glyph-name="FL00AEh" unicode="&#xab;" horiz-adv-x="409" 
d="M81 184l139 -77l42 159l-64 39l85 39l43 159l-180 -76zM275 184l139 -77l42 159l-65 39l86 39l43 159l-180 -76z" />
    <glyph glyph-name="FL00ACh" unicode="&#xac;" horiz-adv-x="356" 
d="M374 159l46 172q6 23 -4 23h-264q-4 0 -10.5 -7.5t-13 -19t-12.5 -24.5t-9 -24q-6 -22 4 -22h192l-26 -98h97z" />
    <glyph glyph-name="FL00ADh" unicode="&#xad;" horiz-adv-x="266" 
d="M111 257h175q4 0 10 7.5t13 18.5t13 24t9 24q6 23 -4 23h-175q-4 0 -10.5 -7.5t-13 -19t-12.5 -24.5t-9 -24q-6 -22 4 -22z" />
    <glyph glyph-name="registered" unicode="&#xae;" horiz-adv-x="276" 
d="M259 532h36q5 -8 3 -14q-2 -8 -5.5 -10.5t-20.5 -2.5h-21zM237 560l-36 -134h29l14 51h6q12 0 15.5 -3t8.5 -13q1 -2 1.5 -5.5t2.5 -7.5l-1 1l3 -23h37q-19 -14 -33 -18t-24 -4h-9q-26 0 -46 11h1q-16 17 -23 35t0 42q5 18 16 35t26.5 29.5t33.5 20.5t36 8h5q12 0 22 -2
q5 -1 16 -8t18 -17l5 -3h-2q3 -4 5 -8t2.5 -11t-0.5 -17.5t-5 -26.5l-3 -12q-3 -11 -5.5 -17t-10.5 -16v1q-12 -14 -24 -21l-12 35l1 -1q-2 8 -2.5 10.5t-2.5 7.5q0 2 -0.5 3t-0.5 3q21 5 27 23.5t4 34.5q-5 10 -12.5 13.5t-35.5 3.5h-47zM308 615q-25 0 -64 -17l1 1
q-17 -7 -24 -12.5t-18 -16.5l-8 -8l-9 -9q-13 -17 -19 -28t-12 -33q-5 -20 -6 -29t4 -24l2 -5q2 -4 3.5 -7.5t3.5 -6.5q4 -10 8 -15.5t14 -13.5l3 -2v1q16 -15 56 -15q38 0 64 15q19 11 33.5 22.5t19.5 21.5q25 24 34 58q10 36 -2 62l1 -1q-1 15 -9 26t-20 18.5t-26.5 12
t-29.5 5.5z" />
    <glyph glyph-name="FL00AFh" unicode="&#xaf;" horiz-adv-x="418" 
d="M171 483h327q4 0 10 7.5t13 18.5t13 24t9 24q6 23 -4 23h-327q-4 0 -10.5 -7.5t-13 -19t-12.5 -24.5t-9 -24q-4 -22 4 -22z" />
    <glyph glyph-name="FL00B0h" unicode="&#xb0;" horiz-adv-x="214" 
d="M274 708q7 30 35 30q25 0 18 -30q-9 -29 -34 -29q-28 0 -19 29zM217 709q-9 -34 9 -58t53 -24q36 0 65.5 24t39.5 58q9 34 -8.5 58.5t-52.5 24.5q-17 0 -34.5 -6.5t-32 -18t-25 -26.5t-14.5 -32z" />
    <glyph glyph-name="FL00B1h" unicode="&#xb1;" horiz-adv-x="361" 
d="M42 0h270q3 0 9.5 7.5t13 18.5t12.5 24.5t9 24.5q6 22 -4 22h-269q-4 0 -10.5 -7.5t-13 -18.5t-12.5 -24t-9 -24q-6 -23 4 -23zM302 257h79q3 0 9.5 7.5t13 18.5t12.5 24t9 24q6 23 -4 23h-93l26 96h-97l-26 -96h-79q-4 0 -10.5 -7.5t-13 -19t-12.5 -24.5t-9 -24
q-6 -22 4 -22h94l-26 -98h97z" />
    <glyph glyph-name="FL00B3h" unicode="&#xb2;" horiz-adv-x="298" 
d="M127 291h199q4 0 12 9.5t16 23t15 28t10 25.5q0 7 0.5 12t1.5 16h-103q-2 -7 -2.5 -8t0.5 -3l-1 3q0 -1 0.5 -1.5t-0.5 -2.5q-2 -9 -3.5 -11t-4.5 -2h-23q-1 0 -3 8l2 8q2 5 11.5 10.5t21.5 10.5q6 4 14 7.5t11 5.5q16 4 35.5 14t36.5 25t31 34t20 42q1 4 3.5 15.5
t3.5 23.5t-0.5 21.5t-8.5 9.5h-198q-5 0 -13 -9t-16 -21.5t-15 -27t-10 -25.5q-1 -2 -1 -12v-6q0 -7 -1 -10h105l3 16q2 8 4.5 10t5.5 2h17q0 -4 5 -9v-2q-5 -16 -14.5 -20.5t-21.5 -7.5h-1q-9 -2 -17.5 -5t-16.5 -9h2q-16 -7 -34.5 -20.5t-35 -29.5t-29 -34t-16.5 -34
q-1 -4 -3.5 -15t-3.5 -23t0.5 -21.5t9.5 -10.5z" />
    <glyph glyph-name="FL00BDh" unicode="&#xb3;" horiz-adv-x="314" 
d="M437 615h-235q-5 -7 -10 -22t-8 -27l-3 -11q-5 -18 3.5 -29t24.5 -18t35 -9.5t35 -2.5l1 15l1 4l3.5 10.5t6.5 9.5h25q0 -2 5 -2q2 -2 4 -6l-9 -36h-81q-2 0 -6.5 -4.5t-9 -11t-8 -14.5t-4.5 -14q-5 -14 4 -14h89l-13 -50l-4 -4h-36l8 31h-113l-32 -119h240
q7 0 14.5 10.5t14 24t10.5 26t5 17.5q11 33 6 59q-2 5 -4.5 11t-7.5 14q9 6 15 13t11 12q9 13 14.5 27.5t10.5 31.5q1 4 3.5 17t4 26.5t-0.5 24t-9 10.5z" />
    <glyph glyph-name="FL00B4h" unicode="&#xb4;" horiz-adv-x="219" 
d="M316 790l-118 -160h162l125 160h-169z" />
    <glyph glyph-name="FL00B5h" unicode="&#xb5;" 
d="M188 582h176l-127 -475q0 -7 2.5 -12t13.5 -5h87q7 0 16 5t10 10l128 477h175l-123 -459q-5 -18 -19.5 -39.5t-34 -40t-41 -31t-39.5 -12.5h-204l-31 -115h-176z" />
    <glyph glyph-name="FL0A46h" unicode="&#xb6;" horiz-adv-x="548" 
d="M523 0h-176l132 491h-39l-132 -491h-176l63 235l-1 2l1 -1l1 1q-3 3 -12.5 15.5t-20.5 28t-20 31t-11 25.5q-4 38 13 105q2 7 9.5 29.5t18 46.5t22.5 43t24 19h459zM196 236v1l-1 -1h1z" />
    <glyph glyph-name="FL00B7h" unicode="&#xb7;" horiz-adv-x="214" 
d="M109 305q-9 -34 9 -58t53 -24q36 0 65.5 24t39.5 58q9 34 -8.5 58t-52.5 24q-17 0 -34.5 -6.5t-32 -17.5t-25 -26t-14.5 -32z" />
    <glyph glyph-name="FL00B8h" unicode="&#xb8;" horiz-adv-x="154" 
d="M-78 -144h144q4 0 10.5 7.5t13.5 18.5t13 24t9 25l21 79h-98l-15 -56h-57q-4 0 -10 -7.5t-12.5 -19t-12.5 -24.5t-9 -24q-6 -23 3 -23z" />
    <glyph glyph-name="FL00BBh" unicode="&#xb9;" horiz-adv-x="206" 
d="M346 615h-172q0 -10 2.5 -23.5t7.5 -26t12.5 -22t17.5 -11.5l-64 -236h110z" />
    <glyph glyph-name="FL00BAh" unicode="&#xba;" horiz-adv-x="326" 
d="M292 532h36q5 0 5 -3l-40 -147q0 -3 -6 -3h-36q-6 0 -6 3l40 147q0 3 7 3zM178 545l-48 -179q-3 -11 -1 -23t7.5 -22.5t14 -17.5t18.5 -7h154q10 0 22.5 7t23.5 17.5t19.5 22.5t11.5 23l48 179q3 9 1.5 21.5t-7 23t-14 18t-19.5 7.5h-154q-12 0 -24 -7.5t-23 -18t-19 -23
t-11 -21.5z" />
    <glyph glyph-name="FL00BCh" unicode="&#xbb;" horiz-adv-x="409" 
d="M61 107l179 77l65 243l-138 76l-43 -159l66 -39l-87 -39zM255 107l179 77l65 243l-138 76l-43 -159l65 -39l-86 -39z" />
    <glyph glyph-name="FL00CBh" unicode="&#xbc;" horiz-adv-x="706" 
d="M667 580l-419 -580h-166l419 580h166zM442 116l54 203h110l-32 -120h50l32 120h111l-85 -319h-111l31 116h-160zM164 580h173l-85 -319h-111l63 236q-9 2 -16.5 11.5t-13 22t-8 26t-2.5 23.5z" />
    <glyph glyph-name="FL00BEh" unicode="&#xbd;" horiz-adv-x="670" 
d="M667 580l-419 -580h-166l419 580h166zM619 0h-200q-7 1 -8.5 10.5t-0.5 21.5t3.5 23t3.5 15q4 16 16.5 33t28.5 32t34 27.5t34 20.5h-2q8 6 17.5 9t18.5 5q12 3 21 7t14 20l1 3q-5 4 -6 9h-17q-3 0 -5 -2t-4 -11l-4 -16h-105q1 6 1.5 10.5t0.5 6.5v12q3 10 10 24.5
t15 27.5t15.5 22t12.5 9h199q7 0 9 -9.5t1 -21.5t-3 -23.5t-3 -15.5q-6 -23 -20 -41.5t-31 -32.5t-36.5 -23t-35.5 -13q-3 -2 -11 -5.5t-14 -7.5q-12 -5 -21.5 -10.5t-11.5 -11.5l-2 -8q0 -8 3 -8h23q3 0 5 2t4 11q1 2 0.5 2.5t-0.5 1.5v-3q-1 2 -0.5 3t2.5 9h104
q-1 -6 -1.5 -10.5t-0.5 -6.5v-11q-3 -11 -10 -25.5t-15 -28t-16 -23t-13 -9.5zM164 580h173l-85 -319h-111l63 236q-9 2 -16.5 11.5t-13 22t-8 26t-2.5 23.5zM595 238l-1 -2zM597 140l-2 -1z" />
    <glyph glyph-name="FL00CDh" unicode="&#xbe;" horiz-adv-x="817" 
d="M778 580l-420 -580h-167l420 580h167zM192 580h237q7 0 9 -10.5t1 -24t-3.5 -26.5t-3.5 -17q-5 -17 -11 -31.5t-14 -27.5q-5 -7 -11.5 -13t-14.5 -12q5 -8 7 -14t4 -11q2 -14 1.5 -25.5t-5.5 -28.5q-1 -5 -5 -17.5t-10.5 -26t-14 -24t-14.5 -10.5h-241l32 119h113l-8 -31
h36l-1 -1l2 1h3h-3l4 4l12 45h-90q-8 0 -5 14q4 14 13.5 29t14.5 15h82l10 37q-1 2 -2.5 3t-2.5 2q-6 0 -4 2h-26q-9 -10 -10 -20l-1 -4l-1 -15q-16 0 -35 2.5t-35 9.5t-25 18t-4 29l3 11q4 12 8.5 27t8.5 22zM552 116l54 203h111l-32 -120h50l32 120h111l-85 -319h-111
l31 116h-161z" />
    <glyph glyph-name="FL00BFh" unicode="&#xbf;" horiz-adv-x="518" 
d="M581 388l-29 -109q-2 -8 -8 -17.5t-14 -17.5t-16 -13.5t-14 -5.5h-205l-5 -5v1q-8 -7 -14 -13t-17 -23l-15 -53q2 -18 4 -25t7 -13v1q2 -2 2.5 -3.5t2.5 -3.5h90q8 0 16 17t14 39q1 5 1.5 9.5t1.5 9.5q0 2 1 7t1 7h151q2 -14 1 -24.5t-4 -23.5q-5 -18 -16 -40.5t-24 -42
t-25.5 -33t-20.5 -13.5h-313q-18 0 -33 13t-24.5 32t-13 40t1.5 38l18 67q4 16 18.5 38.5t34.5 43.5t42 35.5t41 14.5h160q5 2 9 9t6 14l12 43h175zM607 501q-10 -34 -39.5 -58t-65.5 -24q-35 0 -53 24t-9 58q10 34 40 58t66 24q35 0 53 -23.5t8 -58.5z" />
    <glyph glyph-name="FL00C0h" unicode="&#xc0;" 
d="M155 459q4 16 19 37.5t34.5 40.5t41 32.5t39.5 13.5h279q19 0 33.5 -13.5t23.5 -32.5t12 -40.5t-1 -37.5l-123 -459h-175l46 171q4 22 5 44.5t-7 42.5h-71q-10 0 -4 22q3 11 9 24t12.5 24.5t13 19t10.5 7.5h81l33 122q2 5 -5.5 10.5t-12.5 5.5h-87q-11 0 -16 -5t-10 -13
l-127 -475h-176zM526 790l32 -160h-162l-39 160h169z" />
    <glyph glyph-name="FL00C1h" unicode="&#xc1;" 
d="M155 459q4 16 19 37.5t34.5 40.5t41 32.5t39.5 13.5h279q19 0 33.5 -13.5t23.5 -32.5t12 -40.5t-1 -37.5l-123 -459h-175l46 171q4 22 5 44.5t-7 42.5h-71q-10 0 -4 22q3 11 9 24t12.5 24.5t13 19t10.5 7.5h81l33 122q2 5 -5.5 10.5t-12.5 5.5h-87q-11 0 -16 -5t-10 -13
l-127 -475h-176zM326 630l117 160h170l-126 -160h-161z" />
    <glyph glyph-name="FL00C2h" unicode="&#xc2;" 
d="M155 459q4 16 19 37.5t34.5 40.5t41 32.5t39.5 13.5h279q19 0 33.5 -13.5t23.5 -32.5t12 -40.5t-1 -37.5l-123 -459h-175l46 171q4 22 5 44.5t-7 42.5h-71q-10 0 -4 22q3 11 9 24t12.5 24.5t13 19t10.5 7.5h81l33 122q2 5 -5.5 10.5t-12.5 5.5h-87q-11 0 -16 -5t-10 -13
l-127 -475h-176zM244 630l120 160h242l33 -160h-158l-20 76l-58 -76h-159z" />
    <glyph glyph-name="FL00C3h" unicode="&#xc3;" horiz-adv-x="548" 
d="M155 459q4 16 19 37.5t34.5 40.5t41 32.5t39.5 13.5h279q19 0 33.5 -13.5t23.5 -32.5t12 -40.5t-1 -37.5l-123 -459h-175l46 171q4 22 5 44.5t-7 42.5h-71q-10 0 -4 22q3 11 9 24t12.5 24.5t13 19t10.5 7.5h81l33 122q2 5 -5.5 10.5t-12.5 5.5h-87q-11 0 -16 -5t-10 -13
l-127 -475h-176zM724 790l-119 -160h-163l-19 76l-56 -76h-155l119 160h163l18 -76l58 76h154z" />
    <glyph glyph-name="FL00C4h" unicode="&#xc4;" 
d="M155 459q4 16 19 37.5t34.5 40.5t41 32.5t39.5 13.5h279q19 0 33.5 -13.5t23.5 -32.5t12 -40.5t-1 -37.5l-123 -459h-175l46 171q4 22 5 44.5t-7 42.5h-71q-10 0 -4 22q3 11 9 24.5t12.5 25t13 19t10.5 7.5h81l33 121q2 5 -5.5 10.5t-12.5 5.5h-87q-11 0 -16 -5t-10 -13
l-127 -475h-176zM483 709q4 17 14.5 32t25 26.5t31.5 18t34 6.5q35 0 52.5 -24.5t8.5 -58.5q-10 -34 -39.5 -58t-65.5 -24q-35 0 -52.5 24t-8.5 58zM276 709q4 17 14.5 32t25 26.5t31.5 18t34 6.5q35 0 53 -24.5t9 -58.5q-10 -34 -40 -58t-66 -24q-35 0 -52.5 24t-8.5 58z
" />
    <glyph glyph-name="FL00C5h" unicode="&#xc5;" 
d="M155 459q4 16 19 37.5t34.5 40.5t41 32.5t39.5 13.5h279q19 0 33.5 -13.5t23.5 -32.5t12 -40.5t-1 -37.5l-123 -459h-175l46 171q4 22 5 44.5t-7 42.5h-71q-10 0 -4 22q3 11 9 24.5t12.5 25t13 19t10.5 7.5h81l33 121q2 5 -5.5 10.5t-12.5 5.5h-87q-11 0 -16 -5t-10 -13
l-127 -475h-176zM379 709q4 17 14.5 32t25 26.5t31.5 18t34 6.5q35 0 53 -24.5t9 -58.5q-10 -34 -40 -58t-66 -24q-35 0 -52.5 24t-8.5 58zM436 708q-9 -29 18 -29q26 0 35 29q7 30 -19 30q-27 0 -34 -30z" />
    <glyph glyph-name="FL00C6h" unicode="&#xc6;" horiz-adv-x="836" 
d="M155 457l-122 -457h176l127 473q4 8 10 13t17 5h110l-37 -137h-82q-4 0 -10.5 -7.5t-13 -19t-12.5 -24.5t-9 -24q-6 -22 4 -22h72q8 -20 7 -42t-5 -45l-46 -170h471l42 157h-177l-18 -68h-117l45 168h183q10 0 16 22q3 11 4 24t0 24.5t-3 19t-6 7.5h-168l37 138h116
l-19 -72q28 0 60.5 4.5t62 16.5t52 32t30.5 51l15 56h-678q-18 0 -40 -13.5t-41.5 -32.5t-34 -40t-18.5 -37z" />
    <glyph glyph-name="FL00C7h" unicode="&#xc7;" horiz-adv-x="522" 
d="M116 -121q-6 -23 3 -23h144q3 0 9.5 7.5t13 18.5t13 24.5t9.5 24.5l18 69h172l42 158h-175l-16 -62q-7 -6 -11 -7h-99q-3 0 -3 8q0 2 0.5 5.5t1.5 8.5l91 339q11 17 16.5 24t13.5 13v-1q6 6 8 7h87l-19 -72q27 0 59.5 4.5t62 16.5t52 32t30.5 52l15 56h-365
q-19 0 -40.5 -13t-41 -32t-34 -40.5t-18.5 -37.5l-109 -405q-2 -8 -1 -17.5t4.5 -17.5t8.5 -13.5t11 -5.5h160l-12 -46h-57q-4 0 -10 -7.5t-12.5 -19t-12.5 -24.5t-9 -24z" />
    <glyph glyph-name="FL00C8h" unicode="&#xc8;" horiz-adv-x="523" 
d="M328 790l40 -160h161l-31 160h-170zM654 583h-466l-156 -583h466l42 158h-175l-18 -68h-115l45 168h181q9 0 15 22q3 11 4 24t0.5 24.5t-2.5 19t-6 7.5h-166l37 139h114l-19 -72q28 0 60.5 4.5t61.5 16.5t51.5 32t30.5 51z" />
    <glyph glyph-name="FL00C9h" unicode="&#xc9;" horiz-adv-x="523" 
d="M486 630l125 160h-169l-117 -160h161zM654 583h-466l-156 -583h466l42 158h-175l-18 -68h-115l45 168h181q9 0 15 22q3 11 4 24t0.5 24.5t-2.5 19t-6 7.5h-166l37 139h114l-19 -72q28 0 60.5 4.5t61.5 16.5t51.5 32t30.5 51z" />
    <glyph glyph-name="FL00CAh" unicode="&#xca;" horiz-adv-x="523" 
d="M446 706l20 -76h158l-33 160h-242l-119 -160h158zM654 583h-466l-156 -583h466l42 158h-175l-18 -68h-115l45 168h181q9 0 15 22q3 11 4 24t0.5 24.5t-2.5 19t-6 7.5h-166l37 139h114l-19 -72q28 0 60.5 4.5t61.5 16.5t51.5 32t30.5 51z" />
    <glyph glyph-name="FL00CCh" unicode="&#xcb;" horiz-adv-x="523" 
d="M468 709q-9 -34 8.5 -58t52.5 -24q36 0 65.5 24t39.5 58q9 34 -8.5 58.5t-52.5 24.5q-17 0 -34 -6.5t-31.5 -18t-25 -26.5t-14.5 -32zM261 709q-9 -34 9 -58t53 -24q36 0 65.5 24t39.5 58q9 34 -8.5 58.5t-52.5 24.5q-17 0 -34.5 -6.5t-32 -18t-25 -26.5t-14.5 -32z
M654 583h-466l-156 -583h466l42 158h-175l-18 -68h-115l45 168h181q9 0 15 22q3 11 4 24.5t0.5 25t-2.5 19t-6 7.5h-166l37 138h114l-19 -72q28 0 60.5 4.5t61.5 16.5t51.5 32t30.5 51z" />
    <glyph glyph-name="FL00D4h" unicode="&#xcc;" horiz-adv-x="617" 
d="M32 0l18 68q8 31 29.5 52t49.5 33.5t59 17.5t60 5l-23 -87h26l108 405h-36l-23 -87h-159l47 176h565l-18 -69q-8 -31 -29 -51.5t-49 -33t-59.5 -17.5t-60.5 -5l23 87h-25l-108 -405h36l23 87h158l-47 -176h-565zM562 790l31 -160h-162l-39 160h170z" />
    <glyph glyph-name="FL00D5h" unicode="&#xcd;" horiz-adv-x="617" 
d="M491 790l-118 -160h162l126 160h-170zM597 0l47 176h-158l-23 -87h-36l108 405h25l-23 -87q29 0 60.5 5t59.5 17.5t49 33t29 51.5l18 69h-565l-47 -176h159l23 87h36l-108 -405h-26l23 87q-29 0 -60 -5t-59 -17.5t-49.5 -33.5t-29.5 -52l-18 -68h565z" />
    <glyph glyph-name="FL00CEh" unicode="&#xce;" horiz-adv-x="617" 
d="M32 0l18 68q8 31 29.5 52t49.5 33.5t59 17.5t60 5l-23 -87h26l108 405h-36l-23 -87h-159l47 176h565l-18 -68q-8 -32 -29 -52.5t-49 -33t-60 -17.5t-60 -5l23 87h-25l-108 -405h36l23 87h158l-47 -176h-565zM522 709q4 17 14.5 32t25 26.5t31.5 18t35 6.5
q35 0 52.5 -24.5t8.5 -58.5q-10 -34 -39.5 -58t-65.5 -24t-53.5 24t-8.5 58zM315 709q4 17 14.5 32t25 26.5t31.5 18t34 6.5q35 0 53 -24.5t9 -58.5q-10 -34 -40 -58t-66 -24q-35 0 -52.5 24t-8.5 58z" />
    <glyph glyph-name="FL00CFh" unicode="&#xcf;" horiz-adv-x="617" 
d="M32 0l18 68q8 31 29.5 52t49.5 33.5t59 17.5t60 5l-23 -87h26l108 405h-36l-23 -87h-159l47 176h565l-18 -69q-8 -31 -29 -51.5t-49 -33t-59.5 -17.5t-60.5 -5l23 87h-25l-108 -405h36l23 87h158l-47 -176h-565zM283 630l120 160h242l34 -160h-159l-20 76l-58 -76h-159z
" />
    <glyph glyph-name="FL00D0h" unicode="&#xd0;" horiz-adv-x="625" 
d="M118 0l69 257h-76q-10 0 -4 22q3 11 9 24t12.5 24.5t13 19t10.5 7.5h61l60 226h381q19 0 33.5 -13.5t23.5 -32.5t12 -40t-1 -37l-89 -334q-5 -18 -19.5 -39.5t-34 -40t-41 -31t-39.5 -12.5h-381zM421 257h-58l-45 -168h109q7 0 15.5 5.5t10.5 10.5l99 370q2 5 -5 10.5
t-12 5.5h-109l-37 -137h73q9 0 3 -23q-3 -11 -9 -24t-12.5 -24t-12.5 -18.5t-10 -7.5z" />
    <glyph glyph-name="FL00D1h" unicode="&#xd1;" 
d="M32 0l156 583h380q19 0 33.5 -13.5t23.5 -32.5t12 -40.5t-1 -37.5l-123 -459h-175l128 477q2 5 -5.5 10.5t-12.5 5.5h-108l-132 -493h-176zM719 790l-119 -160h-163l-19 76l-56 -76h-155l120 160h162l18 -76l58 76h154z" />
    <glyph glyph-name="FL00D2h" unicode="&#xd2;" 
d="M636 459l-90 -336q-5 -18 -19.5 -39.5t-34 -40t-41 -31t-39.5 -12.5h-279q-18 0 -33 12.5t-24.5 31t-12.5 40t2 39.5l90 336q4 16 18.5 37.5t34 40.5t41 32.5t40.5 13.5h279q19 0 33.5 -13.5t23.5 -32.5t12 -40.5t-1 -37.5zM448 493h-87q-5 0 -14 -5.5t-11 -10.5
l-100 -371q-1 -5 4.5 -10.5t12.5 -5.5h87q7 0 16 5.5t10 10.5l100 371q2 5 -5.5 10.5t-12.5 5.5zM526 790l32 -160h-162l-39 160h169z" />
    <glyph glyph-name="FL00D3h" unicode="&#xd3;" 
d="M155 459q4 16 18.5 37.5t34 40.5t41 32.5t40.5 13.5h279q19 0 33.5 -13.5t23.5 -32.5t12 -40.5t-1 -37.5l-90 -336q-5 -18 -19.5 -39.5t-34 -40t-41 -31t-39.5 -12.5h-279q-18 0 -33 12.5t-24.5 31t-12.5 40t2 39.5zM361 493q-5 0 -14 -5.5t-11 -10.5l-100 -371
q-1 -5 4.5 -10.5t12.5 -5.5h87q7 0 16 5.5t10 10.5l100 371q2 5 -5.5 10.5t-12.5 5.5h-87zM326 630l117 160h170l-126 -160h-161z" />
    <glyph glyph-name="FL00D6h" unicode="&#xd4;" 
d="M636 459l-90 -336q-5 -18 -19.5 -39.5t-34 -40t-41 -31t-39.5 -12.5h-279q-18 0 -33 12.5t-24.5 31t-12.5 40t2 39.5l90 336q4 16 18.5 37.5t34 40.5t41 32.5t40.5 13.5h279q19 0 33.5 -13.5t23.5 -32.5t12 -40.5t-1 -37.5zM448 493h-87q-5 0 -14 -5.5t-11 -10.5
l-100 -371q-1 -5 4.5 -10.5t12.5 -5.5h87q7 0 16 5.5t10 10.5l100 371q2 5 -5.5 10.5t-12.5 5.5zM244 630l120 160h242l33 -160h-158l-20 76l-58 -76h-159z" />
    <glyph glyph-name="FL00D7h" unicode="&#xd5;" horiz-adv-x="548" 
d="M636 459l-90 -336q-5 -18 -19.5 -39.5t-34 -40t-41 -31t-39.5 -12.5h-279q-18 0 -33 12.5t-24.5 31t-12.5 40t2 39.5l90 336q4 16 18.5 37.5t34 40.5t41 32.5t40.5 13.5h279q19 0 33.5 -13.5t23.5 -32.5t12 -40.5t-1 -37.5zM724 790l-119 -160h-163l-19 76l-56 -76h-155
l119 160h163l18 -76l58 76h154zM448 493h-87q-5 0 -14 -5.5t-11 -10.5l-100 -371q-1 -5 4.5 -10.5t12.5 -5.5h87q7 0 16 5.5t10 10.5l100 371q2 5 -5.5 10.5t-12.5 5.5z" />
    <glyph glyph-name="FL00D8h" unicode="&#xd6;" 
d="M155 459q4 16 18.5 37.5t34 40.5t41 32.5t40.5 13.5h279q19 0 33.5 -13.5t23.5 -32.5t12 -40.5t-1 -37.5l-90 -336q-5 -18 -19.5 -39.5t-34 -40t-41 -31t-39.5 -12.5h-279q-18 0 -33 12.5t-24.5 31t-12.5 40t2 39.5zM361 493q-5 0 -14 -5.5t-11 -10.5l-100 -371
q-1 -5 4.5 -10.5t12.5 -5.5h87q7 0 16 5.5t10 10.5l100 371q2 5 -5.5 10.5t-12.5 5.5h-87zM276 709q4 17 14.5 32t25 26.5t31.5 18t34 6.5q35 0 53 -24.5t9 -58.5q-10 -34 -40 -58t-66 -24q-35 0 -52.5 24t-8.5 58zM483 709q4 17 14.5 32t25 26.5t31.5 18t34 6.5
q35 0 52.5 -24.5t8.5 -58.5q-10 -34 -39.5 -58t-65.5 -24q-35 0 -52.5 24t-8.5 58z" />
    <glyph glyph-name="FL00E7h" unicode="&#xd7;" horiz-adv-x="282" 
d="M207 237l30 -44q2 -2 6 -2h1q10 0 32 10.5t42 25.5h-1q14 11 17 18q0 3 -4 6l2 -1l-38 54l58 44l3 5q2 11 -4 31t-16 34q-8 12 -17 12l-73 -55l-28 42q-2 3 -6 3h-1q-10 0 -32.5 -11t-41.5 -26q-14 -11 -15 -19l36 -57l-54 -42q-3 -3 -4 -6v-1q-2 -10 3.5 -30t16.5 -34v1
q6 -12 14 -12q2 0 3 0.5t4 4.5l-1 -2z" />
    <glyph glyph-name="FL0517h" unicode="&#xd8;" 
d="M546 123q-4 -16 -18.5 -37t-34 -40t-41.5 -32.5t-40 -13.5h-279q-19 0 -33.5 13.5t-23.5 32.5t-12 40t1 37l89 334q5 18 19.5 39.5t34 40t41 31t39.5 12.5h279q18 0 33 -12.5t24.5 -31t12.5 -40t-2 -39.5zM335 475l-60 -224l147 240h-61q-7 0 -15.5 -5.5t-10.5 -10.5z
M340 89q7 0 15.5 5.5t10.5 10.5l60 224l-147 -240h61z" />
    <glyph glyph-name="FL00D9h" unicode="&#xd9;" 
d="M558 630l-32 160h-169l39 -160h162zM188 583l-123 -460q-4 -16 -0.5 -37t12.5 -40t23.5 -32.5t32.5 -13.5h380l156 583h-175l-132 -493h-109q-11 0 -13.5 5t-2.5 13l127 475h-176z" />
    <glyph glyph-name="FL00DAh" unicode="&#xda;" 
d="M443 790l-117 -160h161l126 160h-170zM188 583l-123 -460q-4 -16 -0.5 -37t12.5 -40t23.5 -32.5t32.5 -13.5h380l156 583h-175l-132 -493h-109q-11 0 -13.5 5t-2.5 13l127 475h-176z" />
    <glyph glyph-name="FL00DBh" unicode="&#xdb;" 
d="M364 790l-120 -160h159l58 76l20 -76h158l-33 160h-242zM188 583l-123 -460q-4 -16 -0.5 -37t12.5 -40t23.5 -32.5t32.5 -13.5h380l156 583h-175l-132 -493h-109q-11 0 -13.5 5t-2.5 13l127 475h-176z" />
    <glyph glyph-name="FL00DCh" unicode="&#xdc;" 
d="M276 709q-9 -34 8.5 -58t52.5 -24q36 0 66 24t40 58q9 34 -9 58.5t-53 24.5q-17 0 -34 -6.5t-31.5 -18t-25 -26.5t-14.5 -32zM483 709q-9 -34 8.5 -58t52.5 -24q36 0 65.5 24t39.5 58q9 34 -8.5 58.5t-52.5 24.5q-17 0 -34 -6.5t-31.5 -18t-25 -26.5t-14.5 -32zM188 583
l-123 -460q-4 -16 -0.5 -37t12.5 -40t23.5 -32.5t32.5 -13.5h380l156 583h-175l-132 -493h-109q-11 0 -13.5 5t-2.5 13l127 475h-176z" />
    <glyph glyph-name="FL00DDh" unicode="&#xdd;" horiz-adv-x="523" 
d="M136 388l52 195h176l-56 -211q-1 -8 2 -12.5t14 -4.5h94l61 228h175l-142 -529q-2 -8 -8 -17.5t-13.5 -17.5t-15.5 -13.5t-14 -5.5h-338q-14 0 -25.5 17t-19 40t-9.5 48t2 40l1 6q5 16 10.5 32.5t16.5 33.5h171q-7 -17 -11 -30t-8 -27q-3 -11 -4 -23.5t0.5 -23t5.5 -17.5
t10 -7h76q3 0 7.5 8t6.5 15l41 153h-190q-18 0 -32.5 13.5t-23.5 32.5t-12.5 40t0.5 37zM318 630l117 160h170l-126 -160h-161z" />
    <glyph glyph-name="FL0264h" unicode="&#xde;" horiz-adv-x="551" 
d="M32 0l155 580h175l-25 -96h283q12 0 14 -19t-1 -43t-7.5 -46.5t-6.5 -29.5q-8 -29 -18 -55.5t-24 -49.5q-8 -11 -26.5 -27t-38 -32t-35.5 -28t-19 -14l2 1q-34 -23 -74.5 -37.5t-82.5 -26.5q-8 9 -13 19.5t-3 29.5l-1 -1q0 9 3 26t5 26q4 2 10.5 6.5t12.5 8.5
q13 7 30.5 18t33.5 23t28.5 25t15.5 24l25 96q-4 16 -9 16h-128l-106 -394h-175z" />
    <glyph glyph-name="FL00DFh" unicode="&#xdf;" horiz-adv-x="553" 
d="M155 458q4 16 18.5 37t34 40t41.5 32.5t40 13.5h359q12 0 14 -19t-1 -43t-7.5 -46.5t-6.5 -29.5q-8 -30 -17.5 -56t-23.5 -47q-9 -11 -23 -23t-30 -26q8 -14 15.5 -27t11.5 -23q2 -21 -2.5 -47t-12.5 -56q-2 -8 -9 -30.5t-17.5 -46.5t-22.5 -42.5t-24 -18.5h-233
q-10 0 -4 23q3 11 9 23.5t12.5 23.5t12.5 18t9 7h63q5 2 10 5.5t9 8.5l30 111q1 10 0 16l-10 -3q-14 -6 -27.5 -11t-31.5 -10q-8 8 -10 15.5t-4 15.5q-1 1 -1 5q0 1 -3 9q-1 9 3 27.5t7 27.5q3 2 9 6.5t15 9.5q21 14 48.5 31.5t44.5 37.5l-1 -1q5 9 9.5 16t6.5 13l14 51
q-6 16 -10 16h-113q-12 -2 -19 -14l-151 -562h-177zM358 93l0.5 0.5t1.5 0.5h-2l-0.5 -1t0.5 0z" />
    <glyph glyph-name="FL00E0h" unicode="&#xe0;" horiz-adv-x="522" 
d="M328 258h-30q-20 -23 -31 -47.5t-18 -49.5l-14 -51q-2 -7 -0.5 -13.5t3.5 -7.5h1h100q3 0 7.5 8t6.5 15l91 338q-3 18 -5 25t-6 13l-1 -1q-1 2 -2 3.5t-2 3.5h-87l-19 -72q-29 0 -58.5 4.5t-52.5 16.5t-34.5 32t-3.5 51l15 57h365q19 0 33.5 -13t23.5 -32.5t12 -41
t-1 -37.5l-109 -405q-2 -8 -8 -17.5t-13.5 -17.5t-15.5 -13.5t-14 -5.5h-392q-6 0 -11 5.5t-8.5 13.5t-4.5 17.5t1 17.5l44 163q5 18 17.5 42t27 45.5t28 36t21.5 14.5h185q10 0 4 -22q-3 -11 -9 -24.5t-13 -24.5t-13 -18.5t-10 -7.5zM518 790l32 -160h-162l-39 160h169z
" />
    <glyph glyph-name="FL00E1h" unicode="&#xe1;" horiz-adv-x="522" 
d="M328 258h-30q-20 -23 -31 -47.5t-18 -49.5l-14 -51q-2 -7 0 -13.5t4 -7.5h100q3 0 7.5 8t6.5 15l91 338q-3 18 -5 25t-6 13l-1 -1q-1 2 -2 3.5t-2 3.5h-87l-19 -72q-29 0 -58.5 4.5t-52.5 16.5t-34.5 32t-3.5 51l15 57h365q19 0 33.5 -13t23.5 -32.5t12 -41t-1 -37.5
l-109 -405q-2 -8 -8 -17.5t-13.5 -17.5t-15.5 -13.5t-14 -5.5h-392q-6 0 -11 5.5t-8.5 13.5t-4.5 17.5t1 17.5l44 163q5 18 17.5 42t27 45.5t28 36t21.5 14.5h185q10 0 4 -22q-3 -11 -9 -24.5t-13 -24.5t-13 -18.5t-10 -7.5zM318 630l117 160h170l-126 -160h-161z" />
    <glyph glyph-name="FL00E2h" unicode="&#xe2;" horiz-adv-x="522" 
d="M328 258h-30q-20 -23 -31 -47.5t-18 -49.5l-14 -51q-2 -7 0 -13.5t4 -7.5h100q3 0 7.5 8t6.5 15l91 338q-3 18 -5 25t-6 13l-1 -1q-1 2 -2 3.5t-2 3.5h-87l-19 -72q-29 0 -58.5 4.5t-52.5 16.5t-34.5 32t-3.5 51l15 57h365q19 0 33.5 -13t23.5 -32.5t12 -41t-1 -37.5
l-109 -405q-2 -8 -8 -17.5t-13.5 -17.5t-15.5 -13.5t-14 -5.5h-392q-6 0 -11 5.5t-8.5 13.5t-4.5 17.5t1 17.5l44 163q5 18 17.5 42t27 45.5t28 36t21.5 14.5h185q10 0 4 -22q-3 -11 -9 -24.5t-13 -24.5t-13 -18.5t-10 -7.5zM237 630l119 160h242l33 -160h-159l-19 76
l-58 -76h-158z" />
    <glyph glyph-name="FL00E3h" unicode="&#xe3;" horiz-adv-x="522" 
d="M328 258h-30q-20 -23 -31 -47.5t-18 -49.5l-14 -51q-2 -7 -0.5 -13.5t3.5 -7.5h101q3 0 7.5 8t6.5 15l91 338q-3 18 -5 25t-6 13l-1 -1q-1 2 -2 3.5t-2 3.5h-87l-19 -72q-29 0 -58.5 4.5t-52.5 16.5t-34.5 32t-3.5 51l15 57h365q19 0 33.5 -13t23.5 -32.5t12 -41
t-1 -37.5l-109 -405q-2 -8 -8 -17.5t-13.5 -17.5t-15.5 -13.5t-14 -5.5h-392q-6 0 -11 5.5t-8.5 13.5t-4.5 17.5t1 17.5l44 163q5 18 17.5 42t27 45.5t28 36t21.5 14.5h185q10 0 4 -22q-3 -11 -9 -24.5t-13 -24.5t-13 -18.5t-10 -7.5zM711 790l-119 -160h-163l-19 76
l-56 -76h-155l120 160h162l18 -76l58 76h154z" />
    <glyph glyph-name="FL00E4h" unicode="&#xe4;" horiz-adv-x="522" 
d="M328 258h-30q-20 -23 -31 -47.5t-18 -49.5l-14 -51q-2 -7 -0.5 -13.5t3.5 -7.5h101q3 0 7.5 8t6.5 15l91 338q-3 18 -5 25t-6 13l-1 -1q-1 2 -2 3.5t-2 3.5h-87l-19 -72q-29 0 -58.5 4.5t-52.5 16.5t-34.5 32t-3.5 51l15 57h365q19 0 33.5 -13t23.5 -32.5t12 -41
t-1 -37.5l-109 -405q-2 -8 -8 -17.5t-13.5 -17.5t-15.5 -13.5t-14 -5.5h-392q-6 0 -11 5.5t-8.5 13.5t-4.5 17.5t1 17.5l44 163q5 18 17.5 42t27 45.5t28 36.5t21.5 15h185q10 0 4 -23q-3 -11 -9 -24.5t-13 -24.5t-13 -18.5t-10 -7.5zM475 709q4 17 14.5 32t25 26.5t31.5 18
t34 6.5q35 0 52.5 -24.5t8.5 -58.5q-10 -34 -39.5 -58t-65.5 -24q-35 0 -52.5 24t-8.5 58zM268 709q4 17 14.5 32t25 26.5t32 18t34.5 6.5q35 0 52.5 -24.5t8.5 -58.5q-10 -34 -39.5 -58t-65.5 -24q-35 0 -53 24t-9 58z" />
    <glyph glyph-name="FL00E5h" unicode="&#xe5;" horiz-adv-x="522" 
d="M328 258h-30q-20 -23 -31 -47.5t-18 -49.5l-14 -51q-2 -7 -0.5 -13.5t3.5 -7.5h101q3 0 7.5 8t6.5 15l91 338q-3 18 -5 25t-6 13l-1 -1q-1 2 -2 3.5t-2 3.5h-87l-19 -72q-29 0 -58.5 4.5t-52.5 16.5t-34.5 32t-3.5 51l15 57h365q19 0 33.5 -13t23.5 -32.5t12 -41
t-1 -37.5l-109 -405q-2 -8 -8 -17.5t-13.5 -17.5t-15.5 -13.5t-14 -5.5h-392q-6 0 -11 5.5t-8.5 13.5t-4.5 17.5t1 17.5l44 163q5 18 17.5 42t27 45.5t28 36.5t21.5 15h185q10 0 4 -23q-3 -11 -9 -24.5t-13 -24.5t-13 -18.5t-10 -7.5zM371 709q4 17 14.5 32t25 26.5t31.5 18
t34 6.5q35 0 53 -24.5t9 -58.5q-10 -34 -40 -58t-66 -24q-35 0 -52.5 24t-8.5 58zM428 708q-9 -29 18 -29q26 0 35 29q7 30 -19 30q-27 0 -34 -30z" />
    <glyph glyph-name="FL00E6h" unicode="&#xe6;" horiz-adv-x="821" 
d="M952 580h-764l-15 -56q-8 -31 4 -51t35 -32t53 -16.5t58 -4.5l19 72h116l-108 -404h-109h-1q-2 1 -4 7.5t0 13.5l14 51q7 25 18.5 49.5t31.5 47.5h31q3 0 9.5 7.5t13 18.5t12.5 24t9 24q6 23 -4 23h-186q-8 0 -22 -15t-28.5 -36t-26.5 -45t-17 -42l-44 -162
q-2 -8 -1 -17.5t4 -17.5t8.5 -13.5t11.5 -5.5h727l42 157h-177l-18 -68h-117l45 168h183q10 0 16 22q3 11 4 24t0 24.5t-3 19t-6 7.5h-168l37 138h116l-19 -72q28 0 60.5 4.5t62 16.5t52 32t30.5 51z" />
    <glyph glyph-name="FL00E8h" unicode="&#xe7;" horiz-adv-x="522" 
d="M116 -121q-6 -23 3 -23h144q3 0 9.5 7.5t13 18.5t13 24.5t9.5 24.5l18 69h172l42 158h-175l-16 -62q-7 -6 -11 -7h-99q-3 0 -3 8q0 2 0.5 5.5t1.5 8.5l91 339q11 17 16.5 24t13.5 13v-1q6 6 8 7h87l-19 -72q27 0 59.5 4.5t62 16.5t52 32t30.5 52l15 56h-365
q-19 0 -40.5 -13t-41 -32t-34 -40.5t-18.5 -37.5l-109 -405q-2 -8 -1 -17.5t4.5 -17.5t8.5 -13.5t11 -5.5h160l-12 -46h-57q-4 0 -10 -7.5t-12.5 -19t-12.5 -24.5t-9 -24z" />
    <glyph glyph-name="FL00E9h" unicode="&#xe8;" horiz-adv-x="523" 
d="M328 790l40 -160h161l-31 160h-170zM654 583h-466l-156 -583h466l42 158h-175l-18 -68h-115l45 168h181q9 0 15 22q3 11 4 24t0.5 24.5t-2.5 19t-6 7.5h-166l37 139h114l-19 -72q28 0 60.5 4.5t61.5 16.5t51.5 32t30.5 51z" />
    <glyph glyph-name="FL00F0h" unicode="&#xe9;" horiz-adv-x="523" 
d="M486 630l125 160h-169l-117 -160h161zM654 583h-466l-156 -583h466l42 158h-175l-18 -68h-115l45 168h181q9 0 15 22q3 11 4 24t0.5 24.5t-2.5 19t-6 7.5h-166l37 139h114l-19 -72q28 0 60.5 4.5t61.5 16.5t51.5 32t30.5 51z" />
    <glyph glyph-name="FL00EAh" unicode="&#xea;" horiz-adv-x="523" 
d="M446 706l20 -76h158l-33 160h-242l-119 -160h158zM654 583h-466l-156 -583h466l42 158h-175l-18 -68h-115l45 168h181q9 0 15 22q3 11 4 24t0.5 24.5t-2.5 19t-6 7.5h-166l37 139h114l-19 -72q28 0 60.5 4.5t61.5 16.5t51.5 32t30.5 51z" />
    <glyph glyph-name="FL00EBh" unicode="&#xeb;" horiz-adv-x="523" 
d="M468 709q-9 -34 8.5 -58t52.5 -24q36 0 65.5 24t39.5 58q9 34 -8.5 58.5t-52.5 24.5q-17 0 -34 -6.5t-31.5 -18t-25 -26.5t-14.5 -32zM261 709q-9 -34 9 -58t53 -24q36 0 65.5 24t39.5 58q9 34 -8.5 58.5t-52.5 24.5q-17 0 -34.5 -6.5t-32 -18t-25 -26.5t-14.5 -32z
M654 583h-466l-156 -583h466l42 158h-175l-18 -68h-115l45 168h181q9 0 15 22q3 11 4 24.5t0.5 25t-2.5 19t-6 7.5h-166l37 138h114l-19 -72q28 0 60.5 4.5t61.5 16.5t51.5 32t30.5 51z" />
    <glyph glyph-name="FL00ECh" unicode="&#xec;" horiz-adv-x="232" 
d="M411 630l-31 160h-170l39 -160h162zM188 583l-156 -583h176l156 583h-176z" />
    <glyph glyph-name="FL00EDh" unicode="&#xed;" horiz-adv-x="232" 
d="M285 790l-118 -160h162l125 160h-169zM188 583l-156 -583h176l156 583h-176z" />
    <glyph glyph-name="FL00EEh" unicode="&#xee;" horiz-adv-x="233" 
d="M211 790l-120 -160h160l58 76l19 -76h160l-34 160h-243zM188 583l-156 -583h176l156 583h-176z" />
    <glyph glyph-name="FL00EFh" unicode="&#xef;" horiz-adv-x="233" 
d="M123 709q-9 -34 9 -58t53 -24q36 0 65.5 24t39.5 58q9 34 -8.5 58.5t-52.5 24.5q-17 0 -34.5 -6.5t-32 -18t-25 -26.5t-14.5 -32zM331 709q-9 -34 8.5 -58t52.5 -24q36 0 66 24t40 58q9 34 -9 58.5t-53 24.5q-17 0 -34 -6.5t-31.5 -18t-25 -26.5t-14.5 -32zM188 583
l-156 -583h176l156 583h-176z" />
    <glyph glyph-name="FL00F7h" unicode="&#xf0;" horiz-adv-x="522" 
d="M184 355h233l26 95q-3 17 -5.5 24t-6.5 13v-1q-1 2 -2 3.5t-2 3.5h-90q-8 0 -16 -17t-14 -38l-2 -10q-1 -10 -2 -14t-2 -10h-152q-2 14 -0.5 24.5t4.5 24.5q5 18 16.5 40.5t24.5 42t25.5 33t19.5 13.5h133l31 115h97l-31 -115h83q19 0 33.5 -13t23.5 -32.5t12 -41
t-1 -37.5l-109 -404q-2 -8 -8 -17.5t-13.5 -17.5t-15.5 -13.5t-14 -5.5h-337q-14 0 -25.5 17t-19 40t-9.5 48t2 40l19 72q5 18 17.5 42t27 45t28 36t21.5 15zM352 111l39 146h-110q-19 -22 -30.5 -47t-18.5 -50q-3 -11 -3.5 -23.5t1 -23t5 -17.5t9.5 -7h94q3 0 7.5 8t6.5 14
z" />
    <glyph glyph-name="FL00F1h" unicode="&#xf1;" 
d="M32 0l156 583h380q19 0 33.5 -13.5t23.5 -32.5t12 -40.5t-1 -37.5l-123 -459h-175l128 477q2 5 -5.5 10.5t-12.5 5.5h-108l-132 -493h-176zM719 790l-119 -160h-163l-19 76l-56 -76h-155l120 160h162l18 -76l58 76h154z" />
    <glyph glyph-name="FL00F2h" unicode="&#xf2;" 
d="M636 459l-90 -336q-5 -18 -19.5 -39.5t-34 -40t-41 -31t-39.5 -12.5h-279q-18 0 -33 12.5t-24.5 31t-12.5 40t2 39.5l90 336q4 16 18.5 37.5t34 40.5t41 32.5t40.5 13.5h279q19 0 33.5 -13.5t23.5 -32.5t12 -40.5t-1 -37.5zM448 493h-87q-5 0 -14 -5.5t-11 -10.5
l-100 -371q-1 -5 4.5 -10.5t12.5 -5.5h87q7 0 16 5.5t10 10.5l100 371q2 5 -5.5 10.5t-12.5 5.5zM526 790l32 -160h-162l-39 160h169z" />
    <glyph glyph-name="FL00F3h" unicode="&#xf3;" 
d="M155 459q4 16 18.5 37.5t34 40.5t41 32.5t40.5 13.5h279q19 0 33.5 -13.5t23.5 -32.5t12 -40.5t-1 -37.5l-90 -336q-5 -18 -19.5 -39.5t-34 -40t-41 -31t-39.5 -12.5h-279q-18 0 -33 12.5t-24.5 31t-12.5 40t2 39.5zM361 493q-5 0 -14 -5.5t-11 -10.5l-100 -371
q-1 -5 4.5 -10.5t12.5 -5.5h87q7 0 16 5.5t10 10.5l100 371q2 5 -5.5 10.5t-12.5 5.5h-87zM326 630l117 160h170l-126 -160h-161z" />
    <glyph glyph-name="FL00F4h" unicode="&#xf4;" 
d="M636 459l-90 -336q-5 -18 -19.5 -39.5t-34 -40t-41 -31t-39.5 -12.5h-279q-18 0 -33 12.5t-24.5 31t-12.5 40t2 39.5l90 336q4 16 18.5 37.5t34 40.5t41 32.5t40.5 13.5h279q19 0 33.5 -13.5t23.5 -32.5t12 -40.5t-1 -37.5zM448 493h-87q-5 0 -14 -5.5t-11 -10.5
l-100 -371q-1 -5 4.5 -10.5t12.5 -5.5h87q7 0 16 5.5t10 10.5l100 371q2 5 -5.5 10.5t-12.5 5.5zM244 630l120 160h242l33 -160h-158l-20 76l-58 -76h-159z" />
    <glyph glyph-name="FL00F5h" unicode="&#xf5;" horiz-adv-x="548" 
d="M636 459l-90 -336q-5 -18 -19.5 -39.5t-34 -40t-41 -31t-39.5 -12.5h-279q-18 0 -33 12.5t-24.5 31t-12.5 40t2 39.5l90 336q4 16 18.5 37.5t34 40.5t41 32.5t40.5 13.5h279q19 0 33.5 -13.5t23.5 -32.5t12 -40.5t-1 -37.5zM724 790l-119 -160h-163l-19 76l-56 -76h-155
l119 160h163l18 -76l58 76h154zM448 493h-87q-5 0 -14 -5.5t-11 -10.5l-100 -371q-1 -5 4.5 -10.5t12.5 -5.5h87q7 0 16 5.5t10 10.5l100 371q2 5 -5.5 10.5t-12.5 5.5z" />
    <glyph glyph-name="FL00F6h" unicode="&#xf6;" 
d="M155 459q4 16 18.5 37.5t34 40.5t41 32.5t40.5 13.5h279q19 0 33.5 -13.5t23.5 -32.5t12 -40.5t-1 -37.5l-90 -336q-5 -18 -19.5 -39.5t-34 -40t-41 -31t-39.5 -12.5h-279q-18 0 -33 12.5t-24.5 31t-12.5 40t2 39.5zM361 493q-5 0 -14 -5.5t-11 -10.5l-100 -371
q-1 -5 4.5 -10.5t12.5 -5.5h87q7 0 16 5.5t10 10.5l100 371q2 5 -5.5 10.5t-12.5 5.5h-87zM276 709q4 17 14.5 32t25 26.5t31.5 18t34 6.5q35 0 53 -24.5t9 -58.5q-10 -34 -40 -58t-66 -24q-35 0 -52.5 24t-8.5 58zM483 709q4 17 14.5 32t25 26.5t31.5 18t34 6.5
q35 0 52.5 -24.5t8.5 -58.5q-10 -34 -39.5 -58t-65.5 -24q-35 0 -52.5 24t-8.5 58z" />
    <glyph glyph-name="FL00F8h" unicode="&#xf7;" horiz-adv-x="473" 
d="M199 155q-10 -34 8 -57.5t53 -23.5q18 0 34.5 6.5t30.5 17.5t24.5 25.5t15.5 31.5q9 35 -8.5 59t-52.5 24q-17 0 -34 -6.5t-31.5 -18t-25 -26.5t-14.5 -32zM279 455q-9 -34 8.5 -57.5t52.5 -23.5q36 0 65.5 24t39.5 57q9 34 -8.5 58.5t-52.5 24.5q-17 0 -34 -6.5
t-31.5 -18t-25 -26.5t-14.5 -32zM111 257h382q4 0 10 7.5t13 18.5t13 24t9 24q6 23 -4 23h-382q-4 0 -10.5 -7.5t-13 -19t-12.5 -24.5t-9 -24q-6 -22 4 -22z" />
    <glyph glyph-name="FL0100h" unicode="&#xf8;" 
d="M546 123q-4 -16 -18.5 -37t-34 -40t-41.5 -32.5t-40 -13.5h-279q-19 0 -33.5 13.5t-23.5 32.5t-12 40t1 37l89 334q5 18 19.5 39.5t34 40t41 31t39.5 12.5h279q18 0 33 -12.5t24.5 -31t12.5 -40t-2 -39.5zM335 475l-60 -224l147 240h-61q-7 0 -15.5 -5.5t-10.5 -10.5z
M340 89q7 0 15.5 5.5t10.5 10.5l60 224l-147 -240h61z" />
    <glyph glyph-name="FL00F9h" unicode="&#xf9;" 
d="M558 630l-32 160h-169l39 -160h162zM188 583l-123 -460q-4 -16 -0.5 -37t12.5 -40t23.5 -32.5t32.5 -13.5h279q18 0 39.5 12.5t41 31t34 40t19.5 39.5l123 460h-175l-128 -477q-1 -5 -10 -10.5t-16 -5.5h-87q-11 0 -13.5 5t-2.5 13l127 475h-176z" />
    <glyph glyph-name="FL00FAh" unicode="&#xfa;" 
d="M443 790l-117 -160h161l126 160h-170zM188 583l-123 -460q-4 -16 -0.5 -37t12.5 -40t23.5 -32.5t32.5 -13.5h279q18 0 39.5 12.5t41 31t34 40t19.5 39.5l123 460h-175l-128 -477q-1 -5 -10 -10.5t-16 -5.5h-87q-11 0 -13.5 5t-2.5 13l127 475h-176z" />
    <glyph glyph-name="FL00FBh" unicode="&#xfb;" 
d="M364 790l-120 -160h159l58 76l20 -76h158l-33 160h-242zM188 583l-123 -460q-4 -16 -0.5 -37t12.5 -40t23.5 -32.5t32.5 -13.5h279q18 0 39.5 12.5t41 31t34 40t19.5 39.5l123 460h-175l-128 -477q-1 -5 -10 -10.5t-16 -5.5h-87q-11 0 -13.5 5t-2.5 13l127 475h-176z" />
    <glyph glyph-name="FL00FCh" unicode="&#xfc;" 
d="M65 123l123 460h176l-127 -475q0 -8 2.5 -13t13.5 -5h87q7 0 16 5.5t10 10.5l128 477h175l-123 -460q-5 -18 -19.5 -39.5t-34 -40t-41 -31t-39.5 -12.5h-279q-18 0 -32.5 13.5t-23.5 32.5t-12.5 40t0.5 37zM276 709q4 17 14.5 32t25 26.5t31.5 18t34 6.5q35 0 53 -24.5
t9 -58.5q-10 -34 -40 -58t-66 -24q-35 0 -52.5 24t-8.5 58zM483 709q4 17 14.5 32t25 26.5t31.5 18t34 6.5q35 0 52.5 -24.5t8.5 -58.5q-10 -34 -39.5 -58t-65.5 -24q-35 0 -52.5 24t-8.5 58z" />
    <glyph glyph-name="FL00FDh" unicode="&#xfd;" horiz-adv-x="523" 
d="M136 388l52 195h176l-56 -211q-1 -8 2 -12.5t14 -4.5h94l61 228h175l-142 -529q-2 -8 -8 -17.5t-13.5 -17.5t-15.5 -13.5t-14 -5.5h-338q-14 0 -25.5 17t-19 40t-9.5 48t2 40l1 6q5 16 10.5 32.5t16.5 33.5h171q-7 -17 -11 -30t-8 -27q-3 -11 -4 -23.5t0.5 -23t5.5 -17.5
t10 -7h76q3 0 7.5 8t6.5 15l41 153h-190q-18 0 -32.5 13.5t-23.5 32.5t-12.5 40t0.5 37zM318 630l117 160h170l-126 -160h-161z" />
    <glyph glyph-name="FL00FEh" unicode="&#xfe;" horiz-adv-x="551" 
d="M32 0l155 580h175l-25 -96h283q12 0 14 -19t-1 -43t-7.5 -46.5t-6.5 -29.5q-8 -29 -18 -55.5t-24 -49.5q-8 -11 -26.5 -27t-38 -32t-35.5 -28t-19 -14l2 1q-34 -23 -74.5 -37.5t-82.5 -26.5q-8 9 -13 19.5t-3 29.5l-1 -1q0 9 3 26t5 26q4 2 10.5 6.5t12.5 8.5
q13 7 30.5 18t33.5 23t28.5 25t15.5 24l25 96q-4 16 -9 16h-128l-106 -394h-175z" />
    <glyph glyph-name="FL00FFh" unicode="&#xff;" horiz-adv-x="523" 
d="M136 388l52 195h176l-56 -211q-1 -8 2 -12.5t14 -4.5h94l61 228h175l-142 -529q-2 -8 -8 -17.5t-13.5 -17.5t-15.5 -13.5t-14 -5.5h-338q-14 0 -25.5 17t-19 40t-9.5 48t2 40l1 6q5 16 10.5 32.5t16.5 33.5h171q-7 -17 -11 -30t-8 -27q-3 -11 -4 -23.5t0.5 -23t5.5 -17.5
t10 -7h76q3 0 7.5 8t6.5 15l41 153h-190q-18 0 -32.5 13.5t-23.5 32.5t-12.5 40t0.5 37zM475 709q4 17 14.5 32t25 26.5t31.5 18t34 6.5q35 0 52.5 -24.5t8.5 -58.5q-10 -34 -39.5 -58t-65.5 -24q-35 0 -52.5 24t-8.5 58zM268 709q4 17 14.5 32t25 26.5t32 18t34.5 6.5
q35 0 52.5 -24.5t8.5 -58.5q-10 -34 -39.5 -58t-65.5 -24q-35 0 -53 24t-9 58z" />
  </font>
</defs>
</svg>
